<svg width="212" height="53" viewBox="0 0 212 53" fill="none" xmlns="http://www.w3.org/2000/svg">
<g clip-path="url(#clip0_373_745)">
<path d="M23.891 12.9414C25.9114 11.2473 28.3066 12.0645 29.5482 14.187C30.4013 15.6217 30.7911 17.2846 30.6644 18.949C30.6628 18.9656 30.6552 18.981 30.6432 18.9925C30.6311 19.004 30.6154 19.0108 30.5988 19.0117C27.6571 19.1349 24.715 19.1349 21.7727 19.0117C21.7674 19.0121 21.7621 19.0114 21.7572 19.0097C21.7522 19.0079 21.7477 19.0051 21.7439 19.0015C21.74 18.9979 21.737 18.9935 21.735 18.9886C21.733 18.9838 21.7321 18.9785 21.7322 18.9733C21.5969 16.9307 22.2454 14.3264 23.888 12.9454L23.891 12.9414Z" fill="white"/>
<path d="M15.7752 18.453C15.3267 18.3874 14.1943 18.2197 13.8498 17.8207C13.8418 17.8115 13.8359 17.8007 13.8328 17.7889C13.8296 17.7772 13.8292 17.7649 13.8316 17.753C13.9215 17.3186 15.1449 17.1327 15.6368 17.0458C15.951 16.9883 16.2753 16.9398 16.6087 16.8983C18.2479 16.6963 19.8979 16.5687 21.5586 16.5155C21.565 16.5152 21.5714 16.5164 21.5773 16.5189C21.5832 16.5215 21.5884 16.5253 21.5926 16.5302C21.5968 16.5351 21.5998 16.5408 21.6014 16.547C21.6031 16.5532 21.6033 16.5597 21.6021 16.566C21.4527 17.3421 21.3998 18.1337 21.4445 18.9228C21.4446 18.9275 21.4438 18.9321 21.4421 18.9365C21.4403 18.9408 21.4378 18.9448 21.4344 18.9481C21.4311 18.9514 21.4272 18.954 21.4228 18.9557C21.4185 18.9575 21.4138 18.9583 21.4091 18.9581C19.5231 18.8975 17.642 18.7288 15.7752 18.453Z" fill="white"/>
<path d="M38.1827 18.049C37.6719 18.2351 37.1441 18.3704 36.6068 18.453C34.7626 18.7231 32.9045 18.8881 31.0416 18.947C30.982 18.947 30.9537 18.9208 30.9567 18.8612C30.9946 18.0936 30.9472 17.3241 30.8153 16.567C30.8139 16.5597 30.8142 16.5522 30.8162 16.545C30.8181 16.5378 30.8216 16.5312 30.8265 16.5255C30.8313 16.5199 30.8374 16.5154 30.8442 16.5125C30.851 16.5095 30.8584 16.5081 30.8658 16.5084C31.9114 16.5458 38.1574 16.8226 38.5433 17.7065C38.5486 17.7183 38.5508 17.7313 38.5498 17.7441C38.5487 17.757 38.5444 17.7695 38.5373 17.7802C38.4533 17.9067 38.3291 18.001 38.1847 18.0479L38.1827 18.049Z" fill="white"/>
<path d="M13.6494 17.9075C14.007 18.2449 14.6516 18.4177 15.1829 18.5278C16.1531 18.7354 17.1342 18.8882 18.1216 18.9854C23.5538 19.4866 29.021 19.4774 34.4515 18.9581C35.5016 18.8584 36.5442 18.6914 37.573 18.4581C37.99 18.3641 38.3886 18.202 38.7529 17.9783C38.7559 17.9764 38.7593 17.9754 38.7628 17.9754C38.7663 17.9753 38.7697 17.9762 38.7727 17.978C38.7757 17.9798 38.7782 17.9823 38.7799 17.9854C38.7815 17.9885 38.7823 17.9919 38.7822 17.9954C38.7822 18.2773 38.8135 18.6086 38.7398 18.8642C38.1589 20.8765 33.4483 21.7534 31.6966 22.0029C28.2839 22.4812 24.8237 22.5176 21.4017 22.111C19.9523 21.9395 18.5203 21.6438 17.1215 21.2271C16.1244 20.929 15.093 20.5199 14.2677 19.8704C13.6427 19.3781 13.4198 18.7288 13.5989 17.9227C13.6002 17.9174 13.6028 17.9125 13.6065 17.9085C13.6102 17.9045 13.6149 17.9015 13.6201 17.8999C13.6253 17.8982 13.6308 17.898 13.6361 17.8992C13.6415 17.9003 13.6464 17.9029 13.6504 17.9065L13.6494 17.9075ZM13.804 18.3581C13.7993 18.3562 13.7942 18.3558 13.7892 18.3568C13.7843 18.3578 13.7797 18.3602 13.7761 18.3637C13.7724 18.3672 13.7699 18.3717 13.7688 18.3766C13.7676 18.3815 13.7679 18.3867 13.7697 18.3914L14.1333 19.435C14.1348 19.4394 14.1375 19.4435 14.1411 19.4465C14.1446 19.4496 14.149 19.4517 14.1536 19.4525C14.1583 19.4534 14.1631 19.4529 14.1675 19.4512C14.1719 19.4496 14.1758 19.4467 14.1788 19.443L14.7374 18.7601C14.7399 18.7568 14.7416 18.753 14.7424 18.749C14.7431 18.7449 14.743 18.7407 14.7419 18.7367C14.7409 18.7328 14.7389 18.7291 14.7362 18.7259C14.7335 18.7228 14.7301 18.7204 14.7263 18.7187L13.804 18.3581ZM37.5831 18.7127C37.5759 18.7155 37.5694 18.72 37.5643 18.7258C37.5592 18.7316 37.5555 18.7386 37.5536 18.7461C37.5517 18.7536 37.5517 18.7615 37.5535 18.769C37.5553 18.7766 37.5588 18.7836 37.5639 18.7894L38.0791 19.4087C38.0846 19.4155 38.0918 19.4207 38.1 19.4238C38.1082 19.4269 38.117 19.4277 38.1256 19.4263C38.1342 19.4249 38.1423 19.4212 38.1491 19.4156C38.1558 19.41 38.1609 19.4028 38.1639 19.3946L38.5054 18.4328C38.5085 18.4239 38.5091 18.4142 38.5069 18.405C38.5047 18.3958 38.5 18.3874 38.4932 18.3808C38.4864 18.3742 38.4778 18.3697 38.4685 18.3678C38.4592 18.3659 38.4496 18.3668 38.4407 18.3702L37.5831 18.7127ZM36.5345 20.2361C36.5399 20.2417 36.5467 20.2458 36.5542 20.248C36.5617 20.2502 36.5696 20.2505 36.5772 20.2488C36.5848 20.247 36.5919 20.2434 36.5976 20.2381C36.6034 20.2329 36.6078 20.2263 36.6103 20.2189L37.0224 18.8814C37.0247 18.874 37.025 18.8661 37.0233 18.8586C37.0216 18.8511 37.018 18.8441 37.0128 18.8384C37.0076 18.8327 37.001 18.8284 36.9936 18.826C36.9863 18.8237 36.9785 18.8232 36.9709 18.8248L35.5435 19.1006C35.5356 19.1023 35.5283 19.1061 35.5224 19.1116C35.5164 19.117 35.5121 19.124 35.5097 19.1317C35.5073 19.1394 35.5071 19.1476 35.5089 19.1554C35.5108 19.1633 35.5147 19.1705 35.5202 19.1764L36.5304 20.2361H36.5345ZM15.3112 18.8218C15.3035 18.8204 15.2955 18.8211 15.2881 18.8237C15.2807 18.8263 15.274 18.8307 15.2688 18.8366C15.2635 18.8424 15.2598 18.8495 15.2581 18.8572C15.2563 18.8648 15.2565 18.8728 15.2587 18.8804L15.6779 20.2108C15.6804 20.2183 15.6848 20.225 15.6906 20.2303C15.6965 20.2356 15.7036 20.2394 15.7113 20.2412C15.7189 20.243 15.727 20.2429 15.7346 20.2407C15.7422 20.2386 15.7491 20.2345 15.7547 20.229L16.7649 19.1784C16.7707 19.1725 16.7749 19.1651 16.7768 19.1571C16.7788 19.149 16.7785 19.1406 16.776 19.1327C16.7735 19.1247 16.7689 19.1177 16.7626 19.1122C16.7564 19.1067 16.7488 19.1031 16.7406 19.1016L15.3082 18.8218H15.3112ZM17.3852 19.239C17.3788 19.2384 17.3724 19.2395 17.3666 19.2422C17.3608 19.2448 17.3558 19.249 17.3521 19.2542C17.3484 19.2594 17.3461 19.2656 17.3456 19.2719C17.345 19.2783 17.3461 19.2847 17.3488 19.2905L18.1569 21.1735C18.1595 21.1793 18.1635 21.1843 18.1685 21.1882C18.1736 21.192 18.1795 21.1945 18.1857 21.1954C18.192 21.1963 18.1984 21.1956 18.2043 21.1933C18.2102 21.1911 18.2155 21.1874 18.2196 21.1826L19.6783 19.4471C19.6825 19.4418 19.6853 19.4354 19.6862 19.4287C19.6871 19.422 19.6861 19.4151 19.6834 19.4089C19.6807 19.4026 19.6764 19.3973 19.6708 19.3933C19.6653 19.3894 19.6588 19.387 19.652 19.3865L17.3902 19.239H17.3852ZM34.0686 21.1866C34.0727 21.1917 34.078 21.1956 34.084 21.198C34.09 21.2004 34.0966 21.2011 34.103 21.2002C34.1094 21.1993 34.1155 21.1967 34.1206 21.1928C34.1257 21.1888 34.1297 21.1835 34.1322 21.1776L34.9404 19.2905C34.9428 19.2846 34.9437 19.2782 34.943 19.2718C34.9422 19.2655 34.9398 19.2595 34.9361 19.2543C34.9323 19.2491 34.9273 19.245 34.9215 19.2423C34.9158 19.2397 34.9094 19.2385 34.903 19.239L32.6442 19.3905C32.6374 19.391 32.6309 19.3934 32.6254 19.3974C32.6199 19.4013 32.6155 19.4067 32.6128 19.4129C32.6101 19.4191 32.6092 19.426 32.6101 19.4327C32.611 19.4395 32.6137 19.4458 32.6179 19.4511L34.0716 21.1866H34.0686ZM20.3006 19.5198C20.2911 19.5197 20.2818 19.5221 20.2735 19.5266C20.2652 19.5311 20.2582 19.5377 20.2531 19.5457C20.2481 19.5537 20.2451 19.5628 20.2446 19.5722C20.2441 19.5817 20.2459 19.5911 20.2501 19.5996L21.3461 21.721C21.3504 21.7295 21.3568 21.7368 21.3648 21.742C21.3727 21.7473 21.3819 21.7504 21.3914 21.751C21.4009 21.7516 21.4104 21.7497 21.4189 21.7455C21.4275 21.7413 21.4348 21.735 21.4401 21.7271L22.7917 19.6845C22.7972 19.6765 22.8004 19.6672 22.801 19.6575C22.8016 19.6478 22.7996 19.6382 22.7951 19.6295C22.7907 19.6209 22.784 19.6137 22.7757 19.6086C22.7675 19.6035 22.758 19.6008 22.7483 19.6006L20.3006 19.5188V19.5198ZM30.9339 21.7423C30.9381 21.7492 30.9439 21.7549 30.9509 21.7589C30.9579 21.7628 30.9658 21.7649 30.9738 21.7649C30.9819 21.7649 30.9898 21.7628 30.9968 21.7589C31.0038 21.7549 31.0096 21.7492 31.0137 21.7423L32.125 19.5976C32.1286 19.5904 32.1304 19.5824 32.1301 19.5744C32.1297 19.5663 32.1273 19.5585 32.123 19.5517C32.1187 19.5449 32.1127 19.5393 32.1056 19.5355C32.0986 19.5316 32.0906 19.5297 32.0825 19.5299L29.6116 19.6128C29.6034 19.613 29.5954 19.6155 29.5884 19.6199C29.5815 19.6243 29.5758 19.6304 29.572 19.6377C29.5682 19.645 29.5664 19.6532 29.5668 19.6614C29.5672 19.6696 29.5697 19.6776 29.5742 19.6845L30.938 21.7473L30.9339 21.7423ZM23.4403 19.633C23.4308 19.6331 23.4215 19.6357 23.4133 19.6406C23.4051 19.6454 23.3983 19.6523 23.3936 19.6606C23.3889 19.6688 23.3865 19.6782 23.3865 19.6877C23.3865 19.6972 23.3891 19.7066 23.3938 19.7148L24.7505 21.9736C24.7551 21.982 24.7619 21.9891 24.7702 21.994C24.7784 21.9989 24.7879 22.0014 24.7975 22.0014C24.8071 22.0014 24.8165 21.9989 24.8248 21.994C24.8331 21.9891 24.8399 21.982 24.8445 21.9736L25.9779 19.7512C25.9822 19.7431 25.9844 19.734 25.9842 19.7248C25.984 19.7156 25.9815 19.7066 25.9768 19.6987C25.9721 19.6908 25.9655 19.6842 25.9576 19.6796C25.9496 19.675 25.9406 19.6725 25.9314 19.6724L23.4403 19.632V19.633ZM27.5296 21.9827C27.5342 21.9911 27.541 21.9981 27.5492 22.003C27.5575 22.0079 27.5669 22.0105 27.5765 22.0105C27.5862 22.0105 27.5956 22.0079 27.6039 22.003C27.6121 21.9981 27.6189 21.9911 27.6235 21.9827L28.9731 19.7097C28.9779 19.7014 28.9805 19.692 28.9805 19.6824C28.9804 19.6728 28.9779 19.6634 28.9731 19.6551C28.9683 19.6468 28.9614 19.6399 28.953 19.6351C28.9447 19.6304 28.9353 19.6279 28.9257 19.6279L26.4072 19.6703C26.3981 19.6705 26.3891 19.673 26.3811 19.6776C26.3732 19.6822 26.3665 19.6888 26.3619 19.6967C26.3572 19.7046 26.3546 19.7136 26.3544 19.7228C26.3543 19.732 26.3564 19.741 26.3608 19.7491L27.5296 21.9807V21.9827Z" fill="white"/>
<path d="M25.93 24.0768C26.2603 23.5717 26.4856 23.1474 27.1251 23.0121C27.7645 22.8767 28.6959 23.2858 29.2141 23.6919C29.7529 24.1128 30.2957 24.5284 30.8426 24.9385C31.5053 25.4355 32.4902 25.9709 33.166 25.3426C33.2362 25.2797 33.2918 25.2022 33.329 25.1157C33.3662 25.0291 33.3841 24.9355 33.3815 24.8413C33.3789 24.7471 33.3559 24.6546 33.3139 24.5702C33.272 24.4858 33.2123 24.4116 33.1388 24.3526C32.8539 24.1182 32.4892 24.2031 32.174 24.391C32.1704 24.3941 32.1657 24.3958 32.1609 24.3958C32.1561 24.3958 32.1514 24.3941 32.1478 24.391C32.1451 24.3871 32.1437 24.3825 32.1437 24.3778C32.1437 24.3732 32.1451 24.3686 32.1478 24.3647C32.1872 24.3283 32.2437 24.2728 32.3175 24.199C32.7539 23.7616 33.362 23.6788 33.7954 24.1526C34.2167 24.6102 34.2278 25.3739 34.0217 25.9214C33.753 26.6286 33.0468 27.1337 32.3437 27.4367C30.7537 28.1287 28.7757 28.4894 27.1715 27.9055C26.6864 27.7338 26.2581 27.4314 25.934 27.0316C25.9078 26.9993 25.8815 26.9993 25.8562 27.0316C25.2037 27.86 24.053 28.1812 23.0277 28.1903C21.4498 28.2055 18.0939 27.565 17.6959 25.6376C17.5948 25.1244 17.6534 24.49 18.0454 24.1041C18.5646 23.5939 19.2738 23.8525 19.6526 24.3677C19.6728 24.396 19.6678 24.4021 19.6365 24.3869C19.2698 24.2091 18.9091 24.093 18.599 24.4041C18.0939 24.9092 18.6535 25.5153 19.1809 25.6163C19.7546 25.7295 20.5628 25.2436 21.0204 24.8951C21.868 24.2506 22.6893 23.4646 23.7257 23.0909C24.7622 22.7171 25.3956 23.2111 25.8684 24.0697C25.8876 24.1051 25.9088 24.1061 25.931 24.0697L25.93 24.0768Z" fill="white"/>
<path d="M17.5547 33.4242C17.5547 33.7585 17.3092 34.9738 15.2454 34.9738H13.0593V29.843C13.0584 29.6437 12.9838 29.4517 12.8499 29.304C12.716 29.1564 12.5323 29.0634 12.334 29.0429V29.0025H15.2454C17.0728 28.9783 17.2931 30.2996 17.2931 30.5603C17.2931 31.3846 16.7465 31.7594 16.2576 31.9311C16.8445 32.0695 17.5547 32.4372 17.5547 33.4242ZM13.9574 31.7513H15.2868C15.4361 31.7508 15.5838 31.7205 15.7213 31.6621C15.8587 31.6038 15.9832 31.5186 16.0872 31.4115C16.1913 31.3044 16.2729 31.1776 16.3273 31.0385C16.3818 30.8995 16.4078 30.751 16.4041 30.6017C16.4041 29.7612 15.8576 29.2884 15.1151 29.2884H13.9574V31.7513ZM16.5708 33.3828C16.5708 32.1513 15.2737 32.0372 15.0282 32.0372H13.9574V34.6556H15.2454C15.2454 34.6556 16.5708 34.6233 16.5708 33.3828Z" fill="white"/>
<path d="M22.5715 30.8865V34.9738H21.7553V34.6556C21.4773 34.9299 21.1033 35.085 20.7127 35.088C19.554 35.088 19.0893 34.403 19.0893 33.7505L19.0974 31.7189C19.0965 31.5204 19.0215 31.3293 18.8872 31.183C18.7529 31.0367 18.5689 30.9458 18.3711 30.928V30.8865H19.9137V33.701C19.9137 34.4758 20.3703 34.7041 20.7218 34.7041C21.2108 34.7041 21.5461 34.5576 21.7573 34.3V30.8865H22.5715Z" fill="white"/>
<path d="M26.3819 30.8947V31.3836C25.7869 31.3836 25.1424 31.2937 24.9302 32.5251V34.9728H24.114V31.719C24.1115 31.5218 24.036 31.3326 23.902 31.188C23.768 31.0433 23.5851 30.9536 23.3887 30.9361V30.8947H24.9302V31.9554C25.1666 31.0805 25.6636 30.8947 26.3819 30.8947Z" fill="white"/>
<path d="M30.0274 30.8947V31.3836C29.4314 31.3836 28.7869 31.2937 28.5748 32.5251V34.9728H27.7595V31.719C27.7568 31.5217 27.681 31.3325 27.5469 31.1879C27.4127 31.0433 27.2297 30.9536 27.0332 30.9361V30.8947H28.5748V31.9554C28.8122 31.0805 29.3092 30.8947 30.0274 30.8947Z" fill="white"/>
<path d="M32.2212 30.8623V34.9738H31.406V31.6947C31.4051 31.4961 31.3301 31.305 31.1958 31.1588C31.0615 31.0125 30.8775 30.9216 30.6797 30.9037V30.8623H32.2212ZM31.8172 29.1904C31.7177 29.1904 31.6204 29.2199 31.5375 29.275C31.4547 29.3301 31.3899 29.4084 31.3515 29.5002C31.313 29.592 31.3025 29.693 31.3212 29.7908C31.34 29.8885 31.3872 29.9785 31.4569 30.0495C31.5267 30.1205 31.6158 30.1693 31.7132 30.1898C31.8105 30.2103 31.9118 30.2016 32.0042 30.1647C32.0967 30.1279 32.1762 30.0646 32.2328 29.9827C32.2893 29.9009 32.3205 29.8041 32.3223 29.7046C32.3231 29.5708 32.2714 29.4419 32.1783 29.3458C32.0852 29.2496 31.958 29.1939 31.8242 29.1904H31.8172Z" fill="white"/>
<path d="M35.8115 34.5152C35.6155 34.7678 35.3306 35.094 34.6538 35.094C33.9113 35.094 33.8699 34.7021 33.8699 34.3192V31.1967H33.2011V30.8866H33.8699V30.6845C33.8693 30.4876 33.7942 30.2982 33.6596 30.1544C33.525 30.0107 33.341 29.9232 33.1445 29.9097V29.8683H34.6861V30.8876H35.5629V31.1977H34.6901V34.1586C34.6901 34.396 34.6326 34.7304 34.9184 34.8031C35.0902 34.8526 35.4488 34.7789 35.6448 34.4041L35.8115 34.5152Z" fill="white"/>
<path d="M40.028 32.9837C40.028 34.4434 39.1552 35.088 38.0864 35.088C37.0176 35.088 36.1367 34.4434 36.1367 32.9837C36.1367 31.5694 37.0095 30.8865 38.0864 30.8865C39.1633 30.8865 40.028 31.5563 40.028 32.9837ZM39.139 32.9837C39.139 31.6866 38.7966 31.0643 38.0864 31.0643C37.3762 31.0643 37.0257 31.6927 37.0257 32.9837C37.0257 34.3212 37.3772 34.9031 38.0864 34.9031C38.7956 34.9031 39.139 34.3212 39.139 32.9837Z" fill="white"/>
<path d="M16.3492 37.766V36.5437H15.8633V36.2598H17.1765V36.5437H16.6947V37.766H16.3492Z" fill="white"/>
<path d="M17.7137 37.4862H18.533V37.766H17.3672V36.2598H18.5057V36.5356H17.7137V37.4862ZM17.6874 36.867H18.4127V37.1417H17.6874V36.867Z" fill="white"/>
<path d="M18.623 37.766L19.2706 36.873V37.1266L18.6503 36.2598H19.0463L19.4746 36.8659H19.309L19.7302 36.2598H20.106L19.4908 37.1114V36.8619L20.1424 37.766H19.7383L19.2979 37.1266H19.4575L19.0211 37.766H18.623Z" fill="white"/>
<path d="M20.2207 37.2943V37.0256H20.8268V37.2943H20.2207Z" fill="white"/>
<path d="M21.1172 37.766V36.2598H21.4051L22.0466 37.3226H21.893L22.5234 36.2598H22.8093L22.8143 37.766H22.487V36.7609H22.5476L22.0425 37.6064H21.8849L21.3707 36.7609H21.4435V37.766H21.1172Z" fill="white"/>
<path d="M23.5164 37.4862H24.3357V37.766H23.1699V36.2598H24.3084V36.5356H23.5164V37.4862ZM23.4912 36.867H24.2155V37.1417H23.4912V36.867Z" fill="white"/>
<path d="M24.4277 37.766L25.0753 36.873V37.1266L24.451 36.2598H24.855L25.2834 36.8659H25.1177L25.539 36.2598H25.9178L25.3026 37.1114V36.8619L25.9541 37.766H25.5501L25.1076 37.1266H25.2662L24.8298 37.766H24.4277Z" fill="white"/>
<path d="M26.7441 37.766V36.2598H27.0906V37.766H26.7441ZM27.0563 37.4216L27.0371 37.0175L27.7574 36.2578H28.1443L27.4947 36.9569L27.3018 37.164L27.0563 37.4216ZM27.7745 37.766L27.2391 37.1094L27.4674 36.8619L28.1817 37.766H27.7745Z" fill="white"/>
<path d="M28.3359 37.766V36.2598H28.6845V37.766H28.3359Z" fill="white"/>
<path d="M29.353 37.766V36.5437H28.8711V36.2598H30.1844V36.5437H29.7035V37.766H29.353Z" fill="white"/>
<path d="M31.0691 37.7913C30.9588 37.7926 30.8492 37.7734 30.7458 37.7347C30.6492 37.6986 30.5609 37.6432 30.4862 37.5721C30.4131 37.502 30.355 37.4178 30.3155 37.3246C30.2334 37.1249 30.2334 36.9009 30.3155 36.7013C30.3549 36.6077 30.4134 36.5235 30.4872 36.4538C30.5622 36.383 30.6505 36.3278 30.7468 36.2911C30.8506 36.2527 30.9605 36.2335 31.0711 36.2346C31.1927 36.2326 31.3134 36.2556 31.4257 36.3022C31.5297 36.3465 31.621 36.4159 31.6914 36.5043L31.4671 36.7063C31.4197 36.6508 31.3612 36.6057 31.2954 36.574C31.2319 36.5452 31.163 36.5304 31.0934 36.5305C31.0271 36.5296 30.9613 36.5412 30.8994 36.5649C30.8417 36.5869 30.7896 36.6214 30.7468 36.6659C30.7028 36.709 30.6683 36.761 30.6458 36.8184C30.6213 36.8805 30.6093 36.9467 30.6105 37.0134C30.6091 37.0804 30.6212 37.1471 30.6458 37.2094C30.6681 37.267 30.7025 37.319 30.7468 37.3619C30.7896 37.4064 30.8417 37.4409 30.8994 37.463C30.9612 37.4869 31.027 37.4989 31.0934 37.4983C31.1631 37.4981 31.232 37.483 31.2954 37.4539C31.3615 37.4217 31.42 37.3759 31.4671 37.3195L31.6914 37.5215C31.6206 37.6095 31.5294 37.6789 31.4257 37.7236C31.3129 37.7708 31.1914 37.7938 31.0691 37.7913Z" fill="white"/>
<path d="M32.2743 37.766H31.9258V36.2598H32.2743V37.766ZM32.9814 37.1488H32.245V36.8538H32.9814V37.1488ZM32.9552 36.2598H33.3037V37.766H32.9552V36.2598Z" fill="white"/>
<path d="M34.0106 37.4862H34.8308V37.766H33.6641V36.2598H34.8026V36.5356H34.0106V37.4862ZM33.9853 36.867H34.7096V37.1417H33.9853V36.867Z" fill="white"/>
<path d="M35.1074 37.766V36.2598H35.3963L36.2843 37.3438H36.1449V36.2598H36.4884V37.766H36.2025L35.3115 36.6821H35.4519V37.766H35.1074Z" fill="white"/>
<path d="M26.005 45.3041C15.7312 45.3041 7.37891 36.9467 7.37891 26.674C7.37891 16.4013 15.7312 8.04797 26.005 8.04797C36.2787 8.04797 44.6351 16.4003 44.6351 26.674C44.6351 36.9478 36.2777 45.3041 26.005 45.3041ZM26.005 8.34598C15.8989 8.35103 7.68197 16.568 7.68197 26.674C7.68197 36.7801 15.8989 45.0011 26.005 45.0011C36.111 45.0011 44.332 36.779 44.332 26.674C44.332 16.569 36.11 8.35103 26.005 8.35103V8.34598Z" fill="white"/>
<path d="M26.0044 52.673C20.862 52.673 15.8352 51.1481 11.5595 48.2912C7.28373 45.4343 3.95118 41.3737 1.98322 36.6228C0.0152674 31.8719 -0.499713 26.6441 0.503404 21.6006C1.50652 16.557 3.98268 11.9242 7.61877 8.28788C12.4949 3.41171 19.1084 0.672302 26.0044 0.672302C32.9003 0.672302 39.5138 3.41171 44.39 8.28788C49.2662 13.164 52.0056 19.7776 52.0056 26.6735C52.0056 33.5694 49.2662 40.183 44.39 45.0591C41.981 47.4807 39.1157 49.4006 35.9598 50.7075C32.8039 52.0144 29.4202 52.6824 26.0044 52.673ZM26.0044 0.976056C11.8343 0.976056 0.306949 12.5034 0.306949 26.6735C0.306949 40.8436 11.8343 52.3699 26.0044 52.3699C40.1745 52.3699 51.7008 40.8426 51.7008 26.6735C51.7008 12.5044 40.1734 0.976056 26.0044 0.976056Z" fill="white"/>
<path d="M16.7219 7.02264C16.9344 7.12619 17.1105 7.29174 17.227 7.49744C17.3243 7.64991 17.3822 7.82419 17.3954 8.00459C17.4086 8.18498 17.3768 8.36583 17.3027 8.53087C17.1532 8.87703 16.8475 9.18514 16.3855 9.4552L14.4489 10.5816L12.1699 6.6721L14.1024 5.54472C14.5227 5.29958 14.9082 5.19856 15.2591 5.24166C15.428 5.2608 15.5898 5.32061 15.7306 5.41597C15.8713 5.51133 15.9869 5.6394 16.0673 5.78919C16.1731 5.96289 16.2283 6.16264 16.2269 6.36601C16.2234 6.5595 16.1626 6.74761 16.0521 6.90647C16.282 6.87711 16.5153 6.91759 16.7219 7.02264ZM13.5084 6.90142L13.961 7.67725L15.0116 7.07113C15.1361 7.00878 15.234 6.90372 15.2874 6.77514C15.3065 6.71636 15.312 6.65403 15.3036 6.59281C15.2952 6.53158 15.2731 6.47305 15.2389 6.42157C15.2113 6.36542 15.1713 6.31624 15.122 6.27775C15.0726 6.23926 15.0152 6.21245 14.954 6.19933C14.8165 6.18051 14.6768 6.21247 14.5611 6.28924L13.5084 6.90142ZM16.3077 8.30762C16.3264 8.24002 16.3314 8.16936 16.3223 8.09981C16.3133 8.03026 16.2905 7.9632 16.2552 7.9026C16.2199 7.84199 16.1729 7.78905 16.1168 7.74688C16.0608 7.70471 15.9969 7.67417 15.9289 7.65705C15.7708 7.63869 15.6114 7.67738 15.4793 7.76615L14.3843 8.40359L14.8985 9.2865L15.9935 8.64805C16.1361 8.57644 16.2477 8.45544 16.3077 8.30762Z" fill="white"/>
<path d="M20.2533 6.25591L19.6613 6.41754L20.0553 7.85809L19.033 8.13791L17.8379 3.77385L19.9644 3.19097C20.2499 3.10589 20.5518 3.09133 20.8442 3.14854C21.1058 3.20147 21.3461 3.33003 21.5352 3.51827C21.7312 3.71843 21.8706 3.96696 21.9393 4.23854C22.0313 4.54158 22.0225 4.86632 21.914 5.16388C21.7988 5.45824 21.5901 5.70666 21.32 5.87102L22.9727 7.06003L21.7605 7.39339L20.2533 6.25591ZM20.6311 4.12136C20.4587 4.04419 20.2634 4.03516 20.0846 4.0961L19.0976 4.36785L19.434 5.59625L20.425 5.32552C20.6109 5.28782 20.7758 5.18141 20.8867 5.02751C20.9311 4.95197 20.9586 4.8677 20.9673 4.7805C20.9761 4.6933 20.9658 4.60525 20.9372 4.52241C20.918 4.4375 20.8807 4.35773 20.8278 4.28852C20.775 4.21932 20.7079 4.1623 20.6311 4.12136Z" fill="white"/>
<path d="M27.5601 6.95898L27.2288 6.14274L24.9983 6.1286L24.6528 6.94282L23.5254 6.93676L25.5811 2.42218L26.7126 2.42824L28.7047 6.96505L27.5601 6.95898ZM26.1378 3.44046L25.3842 5.21942L26.858 5.2275L26.1378 3.44046Z" fill="white"/>
<path d="M33.378 3.54451L34.5095 3.84252L31.5546 7.74492L30.4727 7.46004L29.8262 2.61108L30.9586 2.91414L31.1536 4.55673L31.3243 6.42054L32.4042 4.88706L33.378 3.54451Z" fill="white"/>
<path d="M34.9906 8.87029C34.7755 8.52654 34.6662 8.12709 34.6764 7.7217C34.6919 7.2868 34.8204 6.86344 35.0492 6.49329C35.2614 6.11332 35.5688 5.79512 35.9412 5.56997C36.2905 5.3638 36.6928 5.26507 37.0979 5.28611C37.5408 5.32205 37.9698 5.45766 38.3529 5.6828C38.7361 5.90795 39.0633 6.21679 39.3102 6.58623C39.5251 6.93053 39.6346 7.33011 39.6254 7.73584C39.609 8.17041 39.4803 8.59331 39.2516 8.96323C39.0401 9.34336 38.733 9.66164 38.3606 9.88655C38.0112 10.0923 37.6089 10.1906 37.204 10.1694C36.7589 10.1436 36.3273 10.0071 35.9483 9.7724C35.5594 9.55546 35.2304 9.24551 34.9906 8.87029ZM37.1383 9.17335C37.3755 9.17785 37.6089 9.11327 37.8101 8.98748C38.0255 8.84236 38.2057 8.65078 38.3374 8.42682C38.469 8.20287 38.5488 7.95225 38.5708 7.69341C38.5826 7.45661 38.5254 7.22146 38.4061 7.01658C38.2743 6.80321 38.0924 6.62525 37.8762 6.49815C37.66 6.37104 37.4161 6.29863 37.1656 6.28721C36.9291 6.28356 36.6968 6.34885 36.4968 6.47511C36.2812 6.61975 36.101 6.8111 35.9694 7.03496C35.8379 7.25881 35.7585 7.50942 35.7371 7.76817C35.7243 8.00423 35.7801 8.23897 35.8978 8.44399C36.0257 8.65884 36.2084 8.83592 36.4271 8.95717C36.6412 9.08998 36.8865 9.16418 37.1383 9.17234V9.17335Z" fill="white"/>
<path d="M42.2482 9.51782L42.6583 10.7786H43.9827L42.9109 11.5574L43.321 12.8171L42.2482 12.0383L41.1764 12.8171L41.5865 11.5574L40.5137 10.7786H41.8391L42.2482 9.51782Z" fill="white"/>
<path d="M45.3718 14.1627L45.6122 14.9022H46.3891L45.7597 15.3598L46.0001 16.0993L45.3718 15.6417L44.7424 16.0993L44.9829 15.3598L44.3535 14.9022H45.1314L45.3718 14.1627Z" fill="white"/>
<path d="M47.0583 17.7307L47.2634 18.3621H47.9281L47.3896 18.753L47.5957 19.3854L47.0583 18.9945L46.5199 19.3854L46.7259 18.753L46.1875 18.3621H46.8522L47.0583 17.7307Z" fill="white"/>
<path d="M6.70773 14.1627L6.46731 14.9022H5.68945L6.31881 15.3598L6.07838 16.0993L6.70773 15.6417L7.33709 16.0993L7.09666 15.3598L7.72601 14.9022H6.94816L6.70773 14.1627Z" fill="white"/>
<path d="M5.4108 17.7307L5.20573 18.3621H4.54102L5.07844 18.753L4.87337 19.3854L5.4108 18.9945L5.94923 19.3854L5.74315 18.753L6.28159 18.3621H5.61688L5.4108 17.7307Z" fill="white"/>
<path d="M9.70326 9.51782L10.1124 10.7786H11.4378L10.366 11.5574L10.7751 12.8171L9.70326 12.0383L8.63144 12.8171L9.04057 11.5574L7.96875 10.7786H9.29413L9.70326 9.51782Z" fill="white"/>
<path d="M50.292 28.9358C49.798 27.4448 47.9817 27.0549 46.522 27.5519C45.3956 27.9327 45.2532 29.2692 45.1077 30.2612C44.9056 31.6755 44.7541 33.111 44.342 34.4889C43.5742 37.0528 41.9609 39.2934 40.086 41.2027C37.3036 44.0271 33.939 46.211 30.2264 47.6023C29.7405 47.7841 28.6717 48.2963 27.8262 48.467C27.505 48.5337 27.2201 48.5478 27.0039 48.4771C29.2981 49.3914 32.6449 48.5428 34.9239 47.8831C40.5313 46.2775 45.2823 42.5311 48.1514 37.4528C49.494 35.0991 51.2073 31.6957 50.292 28.9358ZM49.1808 32.0614C49.0737 32.5332 48.9454 32.9968 48.802 33.4585C48.5068 34.379 48.1417 35.2757 47.71 36.1406C46.8403 37.873 45.7306 39.4741 44.4137 40.8966C43.0968 42.3152 41.6029 43.5586 39.9688 44.5959L39.3556 44.9818L38.7263 45.3405C38.3121 45.5859 37.8757 45.793 37.4473 46.0143C37.2332 46.1244 37.0109 46.2163 36.7917 46.3173L36.1311 46.6133C35.6876 46.7982 35.237 46.9679 34.7885 47.1416C36.551 46.3804 38.2415 45.4622 39.8395 44.3979C40.0415 44.2656 40.2436 44.1353 40.4284 43.9939L41.0093 43.5726C41.2033 43.4322 41.3861 43.2776 41.573 43.1301C41.7599 42.9827 41.9508 42.8362 42.1276 42.6745L42.6701 42.2058C42.8469 42.0462 43.0176 41.8795 43.1934 41.7179C43.2782 41.634 43.3671 41.5542 43.453 41.4694L43.7015 41.2138L43.952 40.9562C44.0362 40.872 44.118 40.7851 44.1975 40.6956C46.1594 38.5923 47.6798 36.117 48.6686 33.4161C49.0039 32.516 49.2545 31.5866 49.4172 30.64C49.3695 31.1186 49.2899 31.5935 49.1788 32.0614H49.1808Z" fill="white"/>
<path d="M49.6891 27.8327C49.0769 26.8124 47.4293 26.2053 46.0625 27.5095C46.2413 27.2266 46.3908 26.9175 46.606 26.665C47.0404 26.1528 47.1828 25.5537 47.2071 24.9123C47.2545 23.6869 46.9788 22.509 46.6686 21.3372C46.5868 21.027 46.6929 20.7755 46.9606 20.6452C47.0799 20.5799 47.2198 20.5628 47.3514 20.5976C47.483 20.6324 47.5962 20.7163 47.6677 20.8321C47.7296 20.9407 47.7643 21.0627 47.7687 21.1877C47.8354 22.2837 47.8869 23.3798 47.9576 24.4759C47.9809 24.8224 48.0455 25.1668 48.094 25.5123C48.1109 25.6447 48.1556 25.7721 48.2252 25.886C48.2949 25.9999 48.3879 26.0977 48.4981 26.173C49.0385 26.5771 49.481 27.0569 49.6689 27.7267C49.677 27.762 49.682 27.7974 49.6891 27.8327Z" fill="white"/>
<path d="M24.2829 48.4671C23.4374 48.2963 22.3636 47.7842 21.8827 47.6023C18.1706 46.2112 14.8066 44.0273 12.0252 41.2027C10.1503 39.2935 8.53596 37.0528 7.76922 34.4889C7.35807 33.111 7.20351 31.6786 7.00349 30.2613C6.86206 29.2733 6.72164 27.9328 5.58921 27.5519C4.13048 27.0549 2.31617 27.4438 1.82218 28.9359C0.906937 31.6957 2.62125 35.0981 3.96178 37.4529C6.83103 42.5294 11.5801 46.2753 17.1853 47.8832C19.4653 48.5428 22.8131 49.3914 25.1063 48.4772C24.8941 48.5479 24.6042 48.5337 24.2829 48.4671ZM15.9892 46.6134L15.3306 46.3174C15.1093 46.2163 14.8881 46.1244 14.6739 46.0143C14.2456 45.7931 13.8092 45.586 13.393 45.3405L12.7647 44.9819L12.1525 44.596C10.5164 43.5587 9.02052 42.3154 7.70154 40.8966C6.3843 39.4744 5.27457 37.8733 4.40526 36.1406C3.97308 35.2759 3.608 34.3792 3.31323 33.4585C3.16978 32.9969 3.04149 32.5332 2.93542 32.0614C2.82618 31.592 2.74855 31.1158 2.70307 30.636C2.86565 31.5828 3.1166 32.5122 3.45264 33.4121C3.78013 34.3103 4.16862 35.1852 4.61538 36.0305C5.51147 37.721 6.6236 39.2879 7.92378 40.6916C8.0019 40.7811 8.08373 40.868 8.16926 40.9522L8.41777 41.2098L8.66931 41.4654C8.75214 41.5502 8.84104 41.63 8.92792 41.7139C9.10268 41.8755 9.27442 42.0422 9.4512 42.2018L9.99368 42.6706C10.1705 42.8322 10.3604 42.9736 10.5463 43.1261C10.7321 43.2787 10.917 43.4292 11.111 43.5686L11.6918 43.9899C11.8817 44.1353 12.0828 44.2657 12.2808 44.394C13.879 45.4577 15.5694 46.376 17.3318 47.1377C16.8842 46.9679 16.4337 46.7982 15.9892 46.6134Z" fill="white"/>
<path d="M2.42773 27.8327C3.03992 26.8124 4.68755 26.2053 6.05435 27.5095C5.87554 27.2266 5.72603 26.9175 5.51187 26.665C5.07648 26.1528 4.93404 25.5537 4.90575 24.9123C4.85928 23.6869 5.13406 22.509 5.44419 21.3372C5.52602 21.027 5.41994 20.7755 5.15325 20.6452C5.03387 20.5799 4.89398 20.5628 4.76241 20.5976C4.63084 20.6324 4.51763 20.7163 4.44611 20.8321C4.38379 20.9405 4.3491 21.0626 4.34509 21.1877C4.27842 22.2837 4.2269 23.3798 4.15619 24.4759C4.13396 24.8224 4.0683 25.1668 4.01981 25.5123C4.00315 25.6448 3.95851 25.7722 3.88884 25.8861C3.81918 26 3.72608 26.0978 3.61573 26.173C3.07628 26.5771 2.6328 27.0569 2.44491 27.7267C2.43582 27.762 2.42773 27.7974 2.42773 27.8327Z" fill="white"/>
<path d="M26.9668 48.7661C26.9668 48.7661 28.2023 49.5046 30.2156 49.3409C32.2289 49.1773 30.9844 50.8178 29.166 50.0794C27.3476 49.3409 26.9668 48.7661 26.9668 48.7661Z" fill="white"/>
<path d="M25.5092 48.7661C25.5092 48.7661 24.2737 49.5046 22.2614 49.3409C20.2491 49.1773 21.4916 50.8168 23.31 50.0794C25.1284 49.3419 25.5092 48.7661 25.5092 48.7661Z" fill="white"/>
<path d="M26.1203 48.8782C26.1203 48.8782 25.2424 50.3511 25.7707 51.2522C26.2991 52.1533 26.9284 51.0582 26.6102 50.2117C26.292 49.3652 26.1203 48.8782 26.1203 48.8782Z" fill="white"/>
<path d="M26.8593 49.2206C26.8593 49.2206 26.7896 50.8006 27.4887 50.6076C28.0716 50.446 27.8049 49.9712 26.8593 49.2206Z" fill="#F48413"/>
<path d="M25.4613 49.5985C25.4613 49.5985 24.0086 50.2248 24.4875 50.7693C24.8835 51.2239 25.1986 50.7794 25.4613 49.5985Z" fill="white"/>
</g>
<path d="M72.0451 33.6735L75.2002 20.0637H82.0463C83.3523 20.0637 84.3833 20.3524 85.1394 20.9298C85.9093 21.4934 86.2942 22.277 86.2942 23.2806C86.2942 23.9817 86.1361 24.5934 85.8199 25.1158C85.5175 25.6245 85.112 26.03 84.6033 26.3325C84.1084 26.6349 83.5516 26.8411 82.933 26.9511V26.9717C83.7166 27.0267 84.349 27.2948 84.8301 27.7759C85.325 28.2433 85.5725 28.8482 85.5725 29.5906C85.5725 30.5116 85.3525 31.2746 84.9126 31.8795C84.4727 32.4706 83.8472 32.9174 83.0361 33.2199C82.2388 33.5223 81.304 33.6735 80.2317 33.6735H72.0451ZM76.7467 30.8278H79.4274C80.0186 30.8278 80.4791 30.7179 80.809 30.4979C81.1527 30.2642 81.3246 29.9205 81.3246 29.4669C81.3246 29.2331 81.2696 29.0407 81.1596 28.8895C81.0634 28.7245 80.9122 28.6008 80.7059 28.5183C80.4997 28.4358 80.2385 28.3946 79.9223 28.3946H77.3241L76.7467 30.8278ZM78.0046 25.487H80.1904C80.5753 25.487 80.8984 25.432 81.1596 25.322C81.4345 25.1983 81.6408 25.0333 81.7782 24.8271C81.9295 24.6072 82.0051 24.3597 82.0051 24.0848C82.0051 23.7274 81.8813 23.4662 81.6339 23.3012C81.3864 23.1225 81.0565 23.0331 80.6441 23.0331H78.5614L78.0046 25.487ZM86.1558 33.6735L88.5479 23.3631H92.2596L91.4967 27.5903L91.3729 27.1779C91.5929 26.3806 91.8747 25.6795 92.2184 25.0746C92.5758 24.4697 93.0157 24.0023 93.5381 23.6724C94.0743 23.3287 94.7066 23.1568 95.4353 23.1568C95.669 23.1568 95.8614 23.1775 96.0126 23.2187C96.1776 23.2462 96.3082 23.2874 96.4044 23.3424L95.4353 26.7861C95.2978 26.7174 95.1328 26.6624 94.9404 26.6212C94.7479 26.5799 94.5004 26.5593 94.198 26.5593C93.7993 26.5593 93.4075 26.6487 93.0226 26.8274C92.6514 27.0061 92.3146 27.2879 92.0122 27.6728C91.7235 28.044 91.5035 28.5527 91.3523 29.1988L90.3213 33.6735H86.1558ZM99.1597 33.8797C98.5274 33.8797 97.95 33.7285 97.4276 33.4261C96.9052 33.1236 96.4928 32.6768 96.1903 32.0857C95.8879 31.4946 95.7367 30.7591 95.7367 29.8793C95.7367 29.0544 95.8535 28.2433 96.0872 27.446C96.3209 26.6487 96.6509 25.9269 97.077 25.2808C97.5169 24.6347 98.0462 24.1192 98.6648 23.7342C99.2835 23.3493 99.9915 23.1568 100.789 23.1568C101.187 23.1568 101.579 23.2325 101.964 23.3837C102.363 23.5349 102.707 23.7755 102.995 24.1054C103.298 24.4353 103.497 24.889 103.593 25.4664L104.088 23.3631H108.254L105.862 33.6735H102.067L102.418 31.7145C102.074 32.3882 101.621 32.9174 101.057 33.3023C100.493 33.6873 99.8609 33.8797 99.1597 33.8797ZM101.098 30.8897C101.387 30.8897 101.648 30.7866 101.882 30.5804C102.115 30.3742 102.315 30.1061 102.48 29.7762C102.658 29.4325 102.789 29.0682 102.872 28.6833C102.968 28.2983 103.016 27.934 103.016 27.5903C103.016 27.2879 102.968 27.0336 102.872 26.8274C102.775 26.6074 102.638 26.4424 102.459 26.3325C102.294 26.2087 102.088 26.1469 101.84 26.1469C101.511 26.1469 101.222 26.2569 100.974 26.4768C100.727 26.6968 100.521 26.9717 100.356 27.3017C100.191 27.6316 100.067 27.9821 99.9846 28.3533C99.9021 28.7245 99.8609 29.0544 99.8609 29.3431C99.8609 29.6593 99.9021 29.9343 99.9846 30.168C100.081 30.4017 100.218 30.5804 100.397 30.7041C100.576 30.8278 100.809 30.8897 101.098 30.8897ZM116.464 23.3631H121.124L115.289 33.6735H110.175L109.082 23.3631H113.185L113.247 33.0343L112.464 32.9105L116.464 23.3631ZM125.746 33.8797C124.687 33.8797 123.766 33.6804 122.982 33.2817C122.199 32.8693 121.587 32.3125 121.147 31.6114C120.721 30.8966 120.508 30.0855 120.508 29.1782C120.508 28.0921 120.742 27.0954 121.209 26.1881C121.676 25.2671 122.357 24.5316 123.25 23.9817C124.158 23.4318 125.271 23.1568 126.591 23.1568C127.663 23.1568 128.591 23.3631 129.375 23.7755C130.159 24.1741 130.763 24.724 131.19 25.4251C131.629 26.1263 131.849 26.9305 131.849 27.8378C131.849 28.9238 131.616 29.9274 131.148 30.8485C130.681 31.7695 129.994 32.505 129.086 33.0549C128.193 33.6048 127.079 33.8797 125.746 33.8797ZM125.807 31.034C126.11 31.034 126.378 30.9172 126.612 30.6835C126.859 30.4498 127.065 30.1473 127.23 29.7762C127.409 29.405 127.54 29.0132 127.622 28.6008C127.718 28.1884 127.766 27.8034 127.766 27.446C127.766 27.1161 127.718 26.848 127.622 26.6418C127.526 26.4356 127.382 26.2775 127.189 26.1675C127.01 26.0575 126.79 26.0025 126.529 26.0025C126.227 26.0025 125.952 26.1194 125.704 26.3531C125.471 26.5868 125.264 26.8892 125.086 27.2604C124.921 27.6316 124.79 28.0234 124.694 28.4358C124.598 28.8482 124.55 29.2331 124.55 29.5906C124.55 29.9068 124.598 30.1748 124.694 30.3948C124.804 30.601 124.948 30.7591 125.127 30.8691C125.319 30.9791 125.546 31.034 125.807 31.034ZM137.895 33.6735L141.05 20.0637H147.896C149.202 20.0637 150.233 20.3524 150.99 20.9298C151.759 21.4934 152.144 22.277 152.144 23.2806C152.144 23.9817 151.986 24.5934 151.67 25.1158C151.368 25.6245 150.962 26.03 150.453 26.3325C149.958 26.6349 149.402 26.8411 148.783 26.9511V26.9717C149.567 27.0267 150.199 27.2948 150.68 27.7759C151.175 28.2433 151.423 28.8482 151.423 29.5906C151.423 30.5116 151.203 31.2746 150.763 31.8795C150.323 32.4706 149.697 32.9174 148.886 33.2199C148.089 33.5223 147.154 33.6735 146.082 33.6735H137.895ZM142.597 30.8278H145.278C145.869 30.8278 146.329 30.7179 146.659 30.4979C147.003 30.2642 147.175 29.9205 147.175 29.4669C147.175 29.2331 147.12 29.0407 147.01 28.8895C146.913 28.7245 146.762 28.6008 146.556 28.5183C146.35 28.4358 146.089 28.3946 145.772 28.3946H143.174L142.597 30.8278ZM143.855 25.487H146.04C146.425 25.487 146.748 25.432 147.01 25.322C147.285 25.1983 147.491 25.0333 147.628 24.8271C147.78 24.6072 147.855 24.3597 147.855 24.0848C147.855 23.7274 147.731 23.4662 147.484 23.3012C147.237 23.1225 146.907 23.0331 146.494 23.0331H144.411L143.855 25.487ZM155.656 33.8797C154.941 33.8797 154.336 33.7285 153.841 33.4261C153.346 33.1099 153.003 32.67 152.81 32.1063C152.618 31.5289 152.611 30.8485 152.789 30.0649L154.336 23.3631H158.501L157.12 29.3844C157.01 29.838 157.044 30.1817 157.223 30.4154C157.415 30.6354 157.697 30.7453 158.068 30.7453C158.357 30.7453 158.598 30.6835 158.79 30.5598C158.983 30.4223 159.148 30.223 159.285 29.9618C159.436 29.6868 159.553 29.3569 159.636 28.9719L160.935 23.3631H165.1L162.708 33.6735H158.996L159.574 30.0442L159.739 30.436C159.45 31.5358 158.948 32.3882 158.233 32.993C157.519 33.5842 156.659 33.8797 155.656 33.8797ZM164.672 33.6735L167.065 23.3631H170.776L170.013 27.5903L169.89 27.1779C170.11 26.3806 170.391 25.6795 170.735 25.0746C171.092 24.4697 171.532 24.0023 172.055 23.6724C172.591 23.3287 173.223 23.1568 173.952 23.1568C174.186 23.1568 174.378 23.1775 174.529 23.2187C174.694 23.2462 174.825 23.2874 174.921 23.3424L173.952 26.7861C173.814 26.7174 173.649 26.6624 173.457 26.6212C173.265 26.5799 173.017 26.5593 172.715 26.5593C172.316 26.5593 171.924 26.6487 171.539 26.8274C171.168 27.0061 170.831 27.2879 170.529 27.6728C170.24 28.044 170.02 28.5527 169.869 29.1988L168.838 33.6735H164.672ZM173.734 33.6735L176.126 23.3631H179.838L179.075 27.5903L178.952 27.1779C179.171 26.3806 179.453 25.6795 179.797 25.0746C180.154 24.4697 180.594 24.0023 181.117 23.6724C181.653 23.3287 182.285 23.1568 183.014 23.1568C183.248 23.1568 183.44 23.1775 183.591 23.2187C183.756 23.2462 183.887 23.2874 183.983 23.3424L183.014 26.7861C182.876 26.7174 182.711 26.6624 182.519 26.6212C182.326 26.5799 182.079 26.5593 181.777 26.5593C181.378 26.5593 180.986 26.6487 180.601 26.8274C180.23 27.0061 179.893 27.2879 179.591 27.6728C179.302 28.044 179.082 28.5527 178.931 29.1988L177.9 33.6735H173.734ZM187.603 22.4557C186.902 22.4557 186.359 22.3183 185.974 22.0433C185.603 21.7684 185.458 21.3216 185.541 20.703C185.637 19.9881 185.885 19.4863 186.283 19.1976C186.682 18.9089 187.259 18.7646 188.015 18.7646C188.73 18.7646 189.273 18.9089 189.644 19.1976C190.029 19.4726 190.181 19.8987 190.098 20.4761C190.002 21.246 189.748 21.7684 189.335 22.0433C188.923 22.3183 188.345 22.4557 187.603 22.4557ZM189.273 23.3631L186.881 33.6735H182.716L185.108 23.3631H189.273ZM194.507 33.8797C193.6 33.8797 192.823 33.7216 192.177 33.4055C191.545 33.0893 191.098 32.6219 190.837 32.0032C190.589 31.3846 190.569 30.6079 190.775 29.6731L192.755 21.1566L197.188 20.0018L194.982 29.5287C194.844 30.0236 194.899 30.4085 195.147 30.6835C195.408 30.9447 195.8 31.0753 196.322 31.0753C196.638 31.0753 196.886 31.0615 197.064 31.034C197.243 30.9928 197.408 30.9378 197.559 30.8691L197.147 33.4467C196.762 33.5979 196.343 33.7079 195.889 33.7766C195.449 33.8454 194.989 33.8797 194.507 33.8797ZM189.744 26.2294L190.404 23.3631H199.085L198.425 26.2294H189.744ZM204.444 33.8797C203.385 33.8797 202.464 33.6804 201.68 33.2817C200.897 32.8693 200.285 32.3125 199.845 31.6114C199.419 30.8966 199.206 30.0855 199.206 29.1782C199.206 28.0921 199.439 27.0954 199.907 26.1881C200.374 25.2671 201.055 24.5316 201.948 23.9817C202.856 23.4318 203.969 23.1568 205.289 23.1568C206.361 23.1568 207.289 23.3631 208.073 23.7755C208.856 24.1741 209.461 24.724 209.887 25.4251C210.327 26.1263 210.547 26.9305 210.547 27.8378C210.547 28.9238 210.314 29.9274 209.846 30.8485C209.379 31.7695 208.691 32.505 207.784 33.0549C206.891 33.6048 205.777 33.8797 204.444 33.8797ZM204.505 31.034C204.808 31.034 205.076 30.9172 205.31 30.6835C205.557 30.4498 205.763 30.1473 205.928 29.7762C206.107 29.405 206.238 29.0132 206.32 28.6008C206.416 28.1884 206.464 27.8034 206.464 27.446C206.464 27.1161 206.416 26.848 206.32 26.6418C206.224 26.4356 206.079 26.2775 205.887 26.1675C205.708 26.0575 205.488 26.0025 205.227 26.0025C204.925 26.0025 204.65 26.1194 204.402 26.3531C204.169 26.5868 203.962 26.8892 203.784 27.2604C203.619 27.6316 203.488 28.0234 203.392 28.4358C203.296 28.8482 203.247 29.2331 203.247 29.5906C203.247 29.9068 203.296 30.1748 203.392 30.3948C203.502 30.601 203.646 30.7591 203.825 30.8691C204.017 30.9791 204.244 31.034 204.505 31.034Z" fill="white"/>
<defs>
<clipPath id="clip0_373_745">
<rect width="52" height="52" fill="white" transform="translate(0.00390625 0.673523)"/>
</clipPath>
</defs>
</svg>
