<svg width="154" height="45" viewBox="0 0 154 45" fill="none" xmlns="http://www.w3.org/2000/svg">
<g clip-path="url(#clip0_373_746)">
<path d="M20.1411 4.29139C21.9886 4.28949 23.8275 4.54283 25.606 5.04425C22.8633 11.8695 16.563 22.8901 2.35561 33.9582C0.726361 30.8813 -0.0813208 27.4342 0.0110228 23.9519C0.103366 20.4696 1.0926 17.0705 2.88261 14.0847C4.67263 11.0989 7.20257 8.62796 10.2267 6.91195C13.2508 5.19594 16.6662 4.29319 20.1411 4.29139Z" fill="white"/>
<path d="M40.2803 24.4824C40.2878 29.7294 38.2508 34.7718 34.6035 38.5351V10.4297C38.2508 14.193 40.2878 19.2355 40.2803 24.4824Z" fill="white"/>
<path d="M9.67011 34.8843V41.7198C8.71806 41.1378 7.81581 40.4775 6.97266 39.7459V34.8843H9.67011Z" fill="white"/>
<path d="M13.5802 30.7693V43.5762C12.6548 43.2569 11.7539 42.8701 10.8848 42.4191V30.7693H13.5802Z" fill="white"/>
<path d="M17.3829 26.4069V44.4837C16.4728 44.3593 15.5722 44.1725 14.6875 43.9248V26.4069H17.3829Z" fill="white"/>
<path d="M21.3658 21.4318V44.6364C20.9543 44.6611 20.5428 44.6735 20.1313 44.6735C19.6361 44.6735 19.1457 44.6556 18.6602 44.6199V21.4318H21.3658Z" fill="white"/>
<path d="M25.1662 16.5166V44.0383C24.2795 44.2667 23.3782 44.4341 22.4688 44.5395V16.5166H25.1662Z" fill="white"/>
<path d="M29.2717 11.5415V42.4809C28.4015 42.9254 27.4999 43.3053 26.5742 43.6174V11.5415H29.2717Z" fill="white"/>
<path d="M32.9497 4.29138V40.0697C32.1012 40.7684 31.1969 41.3961 30.2461 41.9467V4.29138H32.9497Z" fill="white"/>
<path d="M28.3535 6.21581L31.5798 4.66058L34.985 6.28387L31.5674 0.673523L28.3535 6.21581Z" fill="white"/>
<path d="M51.7478 25.6127C49.9879 25.6127 48.5161 25.0414 47.3323 23.8987C46.1485 22.756 45.5566 21.2709 45.5566 19.4434C45.5566 17.6146 46.1595 16.1123 47.3652 14.9366C47.9444 14.3586 48.6335 13.9031 49.3917 13.5974C50.1499 13.2916 50.9616 13.1417 51.7787 13.1565C52.8168 13.1484 53.8427 13.3806 54.7766 13.8351C55.6477 14.2441 56.3994 14.8705 56.9596 15.6544L55.3486 17.2364C54.4035 16.0717 53.2581 15.4894 51.9124 15.4894C51.4035 15.4778 50.8976 15.5718 50.4267 15.7656C49.9558 15.9594 49.5299 16.2488 49.1759 16.6156C48.808 16.986 48.5197 17.428 48.3286 17.9143C48.1375 18.4006 48.0477 18.921 48.0648 19.4434C48.0495 19.9523 48.138 20.459 48.3248 20.9325C48.5116 21.4059 48.7929 21.8362 49.1514 22.1968C49.5098 22.5575 49.9379 22.8411 50.4095 23.0302C50.8811 23.2192 51.3862 23.3098 51.8939 23.2964C53.2944 23.2964 54.4604 22.7086 55.3918 21.5329L57.0522 23.051C56.4591 23.8445 55.6823 24.4816 54.7889 24.9073C53.8439 25.3767 52.8025 25.6183 51.7478 25.6127Z" fill="white"/>
<path d="M67.5621 25.4251H59.0273V13.3669H61.4553V23.1149H67.5621V25.4251Z" fill="white"/>
<path d="M69.4512 25.4251V13.3669H71.8791V25.4251H69.4512Z" fill="white"/>
<path d="M83.0353 25.4251H74.875V13.3669H83.0353V15.6193H77.3029V18.2162H82.6114V20.4748H77.3029V23.1871H83.0353V25.4251Z" fill="white"/>
<path d="M93.4587 20.8295V13.3669H95.8372V25.4251H94.1912L87.9547 18.0367V25.4251H85.5762V13.3669H87.107L93.4587 20.8295Z" fill="white"/>
<path d="M101.164 25.4251V15.7018H97.7344V13.3669H107.051V15.7018H103.615V25.4251H101.164Z" fill="white"/>
<path d="M111.343 25.4251H108.934V13.3669H116.958V15.6523H111.343V18.3626H116.281V20.6315H111.343V25.4251Z" fill="white"/>
<path d="M119.078 25.4251V13.3669H121.506V25.4251H119.078Z" fill="white"/>
<path d="M133.705 25.4251H130.887L128.345 21.042H126.905V25.4251H124.502V13.3669H129.111C130.448 13.3669 131.47 13.7368 132.175 14.4766C132.521 14.8358 132.793 15.2603 132.974 15.7256C133.156 16.1908 133.243 16.6875 133.232 17.1869C133.247 17.9538 133.032 18.7075 132.615 19.3506C132.181 20.0007 131.542 20.4864 130.8 20.7305L133.705 25.4251ZM129.096 15.5946H126.913V18.87H128.885C129.502 18.87 129.957 18.7174 130.275 18.4121C130.435 18.2589 130.561 18.0734 130.644 17.8679C130.727 17.6624 130.765 17.4415 130.757 17.2199C130.764 17.0064 130.728 16.7937 130.651 16.5945C130.573 16.3953 130.457 16.2138 130.308 16.0607C130.149 15.9048 129.959 15.7837 129.75 15.7049C129.542 15.6261 129.319 15.5913 129.096 15.6028V15.5946Z" fill="white"/>
<path d="M139.31 25.6313C138.402 25.6396 137.504 25.4384 136.686 25.0435C135.905 24.6698 135.236 24.0955 134.748 23.3789L136.133 21.6958C136.937 22.8179 138.001 23.3789 139.326 23.3789C139.766 23.3963 140.199 23.2696 140.561 23.018C140.713 22.9161 140.838 22.7777 140.923 22.6152C141.009 22.4527 141.053 22.2714 141.05 22.0877C141.05 21.5858 140.687 21.1671 139.96 20.8316C139.871 20.7883 139.476 20.6253 138.771 20.3572C138.284 20.1718 137.81 19.9534 137.353 19.7033C136.081 18.9745 135.446 17.9735 135.448 16.7001C135.437 16.2222 135.534 15.748 135.732 15.3127C135.929 14.8775 136.222 14.4923 136.588 14.1858C137.36 13.5106 138.348 13.173 139.552 13.173C140.289 13.1577 141.02 13.2949 141.701 13.576C142.382 13.8571 142.997 14.276 143.509 14.8066L142.223 16.5702C141.883 16.2106 141.468 15.9291 141.009 15.7451C140.559 15.55 140.074 15.4469 139.583 15.4419C139.181 15.4201 138.783 15.5326 138.452 15.7616C138.321 15.858 138.215 15.9846 138.143 16.1308C138.072 16.2769 138.036 16.4383 138.04 16.6011C138.04 17.0693 138.367 17.4674 139.017 17.7933L140.207 18.3172C140.879 18.6005 141.368 18.8123 141.674 18.9525C143.045 19.6167 143.731 20.6184 143.731 21.9578C143.742 22.4632 143.636 22.9644 143.423 23.4225C143.21 23.8806 142.894 24.2835 142.501 24.6C141.689 25.2875 140.625 25.6313 139.31 25.6313Z" fill="white"/>
<path d="M148.12 25.4251V15.7018H144.684V13.3669H154V15.7018H150.564V25.4251H148.12Z" fill="white"/>
<path d="M49.9993 36.4519H49.0528L48.5158 35.0493H46.4233L45.8862 36.4519H44.9336L47.1969 30.757H47.773L49.9993 36.4519ZM48.238 34.2325L47.4685 32.1699L46.701 34.2325H48.238Z" fill="white"/>
<path d="M54.8416 36.5365C54.458 36.5456 54.0766 36.4772 53.7199 36.3355C53.3632 36.1937 53.0387 35.9815 52.7655 35.7114C52.2205 35.1436 51.9173 34.3854 51.9199 33.5974C51.9226 32.8094 52.231 32.0533 52.7799 31.4892C53.0534 31.2161 53.3788 31.0009 53.7368 30.8563C54.0949 30.7117 54.4783 30.6408 54.8642 30.6477C55.3586 30.6445 55.8464 30.7612 56.286 30.988C56.7013 31.1869 57.0564 31.493 57.3148 31.8749L56.6852 32.4442C56.4853 32.1537 56.2174 31.9169 55.9049 31.7543C55.5925 31.5918 55.245 31.5085 54.893 31.5119C54.6216 31.5069 54.352 31.5575 54.1007 31.6607C53.8495 31.7639 53.622 31.9176 53.4322 32.1121C53.2378 32.31 53.0854 32.5452 52.9839 32.8036C52.8824 33.062 52.834 33.3382 52.8416 33.6158C52.8318 33.8894 52.8786 34.1621 52.9792 34.4167C53.0797 34.6712 53.2319 34.9021 53.426 35.0947C53.6178 35.2846 53.8459 35.4338 54.0965 35.5334C54.3472 35.633 54.6153 35.6809 54.8848 35.6743C55.2422 35.6812 55.5959 35.6004 55.915 35.439C56.2342 35.2776 56.5092 35.0405 56.716 34.7482L57.3456 35.303C57.0677 35.6841 56.7011 35.9914 56.2778 36.1982C55.8324 36.4232 55.3403 36.5391 54.8416 36.5365Z" fill="white"/>
<path d="M62.4059 36.5365C62.0227 36.5455 61.6415 36.4772 61.2852 36.3354C60.9289 36.1937 60.6047 35.9815 60.3319 35.7114C59.7869 35.1436 59.4837 34.3854 59.4863 33.5974C59.489 32.8094 59.7974 32.0533 60.3463 31.4892C60.6198 31.2161 60.9452 31.0009 61.3032 30.8563C61.6613 30.7117 62.0447 30.6408 62.4306 30.6477C62.925 30.6447 63.4127 30.7615 63.8524 30.988C64.267 31.1881 64.6218 31.494 64.8812 31.8749L64.2495 32.4442C64.0499 32.1539 63.7824 31.9171 63.4703 31.7546C63.1582 31.592 62.8111 31.5087 62.4594 31.5119C62.188 31.5067 61.9183 31.5573 61.6671 31.6606C61.4158 31.7638 61.1883 31.9175 60.9986 32.1121C60.8039 32.3098 60.651 32.545 60.5492 32.8033C60.4474 33.0617 60.3987 33.3381 60.406 33.6158C60.3966 33.8893 60.4437 34.1619 60.5442 34.4164C60.6448 34.6709 60.7966 34.9018 60.9903 35.0947C61.1827 35.2845 61.4111 35.4336 61.6621 35.5332C61.913 35.6327 62.1814 35.6807 62.4512 35.6743C62.8083 35.6812 63.1617 35.6005 63.4806 35.439C63.7994 35.2776 64.074 35.0404 64.2804 34.7482L64.912 35.303C64.6339 35.6847 64.2665 35.9921 63.8421 36.1982C63.3968 36.4232 62.9046 36.5391 62.4059 36.5365Z" fill="white"/>
<path d="M69.957 36.5447C69.2821 36.5334 68.6319 36.2885 68.1165 35.8516C67.6012 35.4146 67.2523 34.8125 67.1292 34.1472C67.006 33.4819 67.1161 32.7944 67.4408 32.2012C67.7655 31.608 68.2848 31.1456 68.9107 30.8923C69.5366 30.639 70.2306 30.6104 70.8751 30.8114C71.5196 31.0124 72.0749 31.4306 72.447 31.9951C72.8191 32.5597 72.9851 33.2358 72.9168 33.909C72.8484 34.5821 72.55 35.2109 72.0721 35.6887C71.7963 35.9683 71.4664 36.1884 71.1027 36.3355C70.739 36.4827 70.3491 36.5539 69.957 36.5447ZM69.9796 35.6743C70.2469 35.6806 70.5126 35.6318 70.7603 35.5311C71.0081 35.4303 71.2325 35.2797 71.4199 35.0885C71.8001 34.6901 72.0123 34.1599 72.0123 33.6086C72.0123 33.0572 71.8001 32.5271 71.4199 32.1286C71.2331 31.9362 71.0089 31.7841 70.7612 31.682C70.5135 31.5798 70.2474 31.5296 69.9796 31.5346C69.7109 31.5289 69.444 31.5796 69.196 31.6833C68.948 31.787 68.7243 31.9415 68.5393 32.1369C68.1667 32.5359 67.9594 33.062 67.9594 33.6086C67.9594 34.1551 68.1667 34.6813 68.5393 35.0803C68.7271 35.2732 68.9523 35.4255 69.2011 35.5277C69.4499 35.6298 69.717 35.6798 69.9858 35.6743H69.9796Z" fill="white"/>
<path d="M77.6965 36.5633C77.1373 36.585 76.5914 36.3883 76.1739 36.0146C75.9734 35.8173 75.8174 35.5791 75.7166 35.3161C75.6158 35.0531 75.5725 34.7715 75.5896 34.4903V30.757H76.4743V34.3645C76.4505 34.7195 76.5648 35.0699 76.7933 35.3422C76.9114 35.4596 77.0529 35.5506 77.2086 35.6092C77.3642 35.6679 77.5305 35.6929 77.6965 35.6825C77.8636 35.6922 78.0307 35.6653 78.1864 35.6037C78.342 35.5421 78.4824 35.4472 78.5977 35.3257C78.8267 35.0568 78.9426 34.7092 78.9208 34.3562V30.757H79.8138V34.48C79.8138 35.1428 79.619 35.6536 79.2294 36.0125C78.8099 36.3899 78.2596 36.5876 77.6965 36.5633Z" fill="white"/>
<path d="M86.592 34.6491V30.757H87.4685V36.4519H86.9459L83.6929 32.5906V36.4519H82.8164V30.757H83.2794L86.592 34.6491Z" fill="white"/>
<path d="M91.6194 36.4519V31.613H89.959V30.7487H94.1811V31.613H92.5186V36.4436L91.6194 36.4519Z" fill="white"/>
<path d="M96.6699 36.4519V30.757H97.5547V36.4519H96.6699Z" fill="white"/>
<path d="M104.405 34.6491V30.757H105.281V36.4519H104.758L101.505 32.5906V36.4519H100.629V30.757H101.092L104.405 34.6491Z" fill="white"/>
<path d="M110.931 36.5364C110.544 36.5505 110.157 36.4845 109.796 36.3425C109.435 36.2005 109.107 35.9856 108.832 35.7111C108.557 35.4366 108.342 35.1084 108.199 34.7469C108.056 34.3853 107.989 33.9982 108.002 33.6095C107.99 33.2166 108.06 32.8255 108.209 32.4617C108.357 32.0979 108.58 31.7693 108.864 31.4974C109.141 31.2226 109.47 31.0064 109.832 30.8619C110.194 30.7173 110.581 30.6472 110.971 30.6559C111.426 30.6544 111.878 30.7478 112.296 30.9302C112.691 31.0923 113.043 31.3444 113.324 31.6666L112.707 32.2668C112.49 32.0234 112.223 31.8305 111.924 31.7015C111.625 31.5725 111.302 31.5106 110.977 31.5201C110.704 31.5186 110.434 31.571 110.181 31.6742C109.929 31.7774 109.699 31.9294 109.505 32.1217C109.312 32.3139 109.157 32.5424 109.052 32.7944C108.946 33.0463 108.891 33.3166 108.889 33.59C108.888 33.8633 108.94 34.1342 109.043 34.3873C109.146 34.6403 109.298 34.8706 109.489 35.0649C109.681 35.2592 109.909 35.4138 110.16 35.5197C110.412 35.6257 110.681 35.681 110.954 35.6825C111.28 35.6792 111.602 35.6091 111.901 35.4762C112.197 35.3529 112.464 35.168 112.685 34.9338V33.9169H110.903V33.1145H113.518V35.3504C113.2 35.7265 112.804 36.0278 112.357 36.2328C111.91 36.4378 111.423 36.5415 110.931 36.5364Z" fill="white"/>
</g>
<defs>
<clipPath id="clip0_373_746">
<rect width="154" height="44" fill="white" transform="translate(0 0.673523)"/>
</clipPath>
</defs>
</svg>
