<svg width="222" height="43" viewBox="0 0 222 43" fill="none" xmlns="http://www.w3.org/2000/svg">
<g clip-path="url(#clip0_320_48)">
<path fill-rule="evenodd" clip-rule="evenodd" d="M22.0961 31.5419C27.5353 31.5419 31.9424 27.0883 31.9424 21.5977C31.9424 21.3845 31.9346 21.174 31.9215 20.9634C30.8868 22.261 29.2996 23.0901 27.5222 23.0901C24.4 23.0901 21.8694 20.5343 21.8694 17.381C21.8694 15.0542 23.2455 13.0538 25.2236 12.1642C24.241 11.8325 23.1908 11.6509 22.0961 11.6509C16.657 11.6509 12.25 16.1018 12.25 21.5951C12.25 27.0883 16.657 31.5419 22.0961 31.5419Z" fill="white"/>
<path fill-rule="evenodd" clip-rule="evenodd" d="M20.6566 42.4601C9.24933 42.4601 0 33.1187 0 21.5978C0 10.077 9.24933 0.735535 20.6566 0.735535C26.1973 0.735535 31.2273 2.93863 34.9359 6.52358C31.7069 3.81513 27.5656 2.18584 23.0465 2.18584C12.7416 2.18584 4.38881 10.6534 4.38881 21.1003C4.38881 31.5473 12.7416 40.0149 23.0465 40.0149C30.4298 40.0149 36.8123 35.6665 39.8356 29.3573C36.7863 37.038 29.3482 42.4601 20.6566 42.4601Z" fill="white"/>
<path d="M52.4335 21.3392H53.0831C53.3443 21.3392 53.5608 21.3048 53.7326 21.2361C53.9045 21.1605 54.0522 21.0436 54.176 20.8855L58.2898 15.6788C58.4617 15.4588 58.6404 15.3076 58.826 15.2251C59.0185 15.1357 59.259 15.0911 59.5477 15.0911H61.9398L56.9186 21.2877C56.623 21.6657 56.3171 21.9338 56.0009 22.0919C56.2278 22.1744 56.4305 22.2912 56.6092 22.4424C56.7948 22.5868 56.9701 22.7792 57.1351 23.0198L62.3109 30H59.8674C59.5374 30 59.29 29.9553 59.125 29.866C58.9669 29.7697 58.8329 29.6323 58.7229 29.4535L54.5059 23.9478C54.3753 23.7622 54.2241 23.6316 54.0522 23.556C53.8804 23.4803 53.633 23.4425 53.3099 23.4425H52.4335V30H49.66V15.0911H52.4335V21.3392ZM71.0552 24.3705L69.2405 19.4111C69.1512 19.1912 69.0584 18.93 68.9622 18.6276C68.8659 18.3251 68.7697 17.9986 68.6735 17.6481C68.5841 17.9986 68.4913 18.3285 68.3951 18.6379C68.2988 18.9403 68.2061 19.2049 68.1167 19.4318L66.3124 24.3705H71.0552ZM75.9527 30H73.8081C73.5675 30 73.3716 29.9416 73.2204 29.8247C73.0692 29.701 72.9557 29.5498 72.8801 29.3711L71.7666 26.3295H65.5906L64.4771 29.3711C64.4221 29.5292 64.3156 29.6735 64.1575 29.8041C63.9994 29.9347 63.8035 30 63.5698 30H61.4046L67.2712 15.0911H70.0963L75.9527 30ZM88.7243 22.5249V28.5565C87.9682 29.1133 87.1605 29.5223 86.3013 29.7835C85.449 30.0378 84.5348 30.165 83.5587 30.165C82.3421 30.165 81.2389 29.9759 80.2491 29.5979C79.2661 29.2198 78.4241 28.694 77.723 28.0204C77.0288 27.3468 76.4926 26.5426 76.1146 25.6077C75.7365 24.6729 75.5475 23.6522 75.5475 22.5455C75.5475 21.4251 75.7296 20.3975 76.0939 19.4627C76.4582 18.5279 76.9738 17.7237 77.6405 17.05C78.3141 16.3764 79.1286 15.854 80.0841 15.4829C81.0395 15.1117 82.1118 14.9261 83.301 14.9261C83.9058 14.9261 84.4695 14.9742 84.9919 15.0704C85.5211 15.1667 86.0092 15.3007 86.456 15.4725C86.9096 15.6375 87.322 15.8403 87.6932 16.0809C88.0644 16.3214 88.4046 16.5861 88.714 16.8748L87.92 18.1326C87.7963 18.332 87.6348 18.4557 87.4355 18.5038C87.2361 18.5451 87.0196 18.4935 86.7859 18.3492C86.5591 18.2186 86.3322 18.088 86.1054 17.9574C85.8786 17.8268 85.6242 17.7134 85.3424 17.6171C85.0675 17.5209 84.7547 17.4418 84.4042 17.38C84.0605 17.3181 83.6618 17.2872 83.2082 17.2872C82.4727 17.2872 81.8059 17.4109 81.2079 17.6584C80.6168 17.9058 80.1116 18.2598 79.6923 18.7203C79.273 19.1809 78.9499 19.7342 78.7231 20.3803C78.4963 21.0265 78.3829 21.7482 78.3829 22.5455C78.3829 23.3979 78.5031 24.1608 78.7437 24.8345C78.9912 25.5012 79.3349 26.0683 79.7748 26.5357C80.2216 26.9962 80.7577 27.3502 81.3832 27.5977C82.0087 27.8382 82.7064 27.9585 83.4762 27.9585C84.0261 27.9585 84.5176 27.9001 84.9506 27.7832C85.3837 27.6664 85.8064 27.5083 86.2188 27.309V24.6076H84.3423C84.1636 24.6076 84.0227 24.5595 83.9196 24.4633C83.8234 24.3602 83.7752 24.2364 83.7752 24.0921V22.5249H88.7243ZM98.4738 24.3705L96.6591 19.4111C96.5698 19.1912 96.477 18.93 96.3808 18.6276C96.2845 18.3251 96.1883 17.9986 96.0921 17.6481C96.0027 17.9986 95.9099 18.3285 95.8137 18.6379C95.7174 18.9403 95.6247 19.2049 95.5353 19.4318L93.731 24.3705H98.4738ZM103.371 30H101.227C100.986 30 100.79 29.9416 100.639 29.8247C100.488 29.701 100.374 29.5498 100.299 29.3711L99.1852 26.3295H93.0092L91.8957 29.3711C91.8407 29.5292 91.7342 29.6735 91.5761 29.8041C91.418 29.9347 91.2221 30 90.9884 30H88.8232L94.6898 15.0911H97.5149L103.371 30ZM116.864 15.0911V30H115.441C115.221 30 115.036 29.9656 114.885 29.8969C114.74 29.8213 114.599 29.6976 114.462 29.5257L106.678 19.5864C106.719 20.0401 106.739 20.4594 106.739 20.8443V30H104.296V15.0911H105.75C105.866 15.0911 105.966 15.0979 106.049 15.1117C106.138 15.1186 106.214 15.1392 106.275 15.1735C106.344 15.201 106.409 15.2457 106.471 15.3076C106.533 15.3626 106.602 15.4382 106.678 15.5344L114.493 25.5149C114.472 25.2744 114.455 25.0372 114.441 24.8035C114.428 24.5698 114.421 24.3533 114.421 24.154V15.0911H116.864ZM126.745 30H123.961V15.0911H126.745V30ZM142.033 15.0911V30H140.61C140.39 30 140.205 29.9656 140.053 29.8969C139.909 29.8213 139.768 29.6976 139.631 29.5257L131.846 19.5864C131.888 20.0401 131.908 20.4594 131.908 20.8443V30H129.465V15.0911H130.918C131.035 15.0911 131.135 15.0979 131.217 15.1117C131.307 15.1186 131.382 15.1392 131.444 15.1735C131.513 15.201 131.578 15.2457 131.64 15.3076C131.702 15.3626 131.771 15.4382 131.846 15.5344L139.662 25.5149C139.641 25.2744 139.624 25.0372 139.61 24.8035C139.596 24.5698 139.59 24.3533 139.59 24.154V15.0911H142.033ZM152.674 17.8027C152.591 17.9471 152.502 18.0536 152.406 18.1223C152.316 18.1842 152.203 18.2151 152.065 18.2151C151.921 18.2151 151.763 18.1636 151.591 18.0605C151.426 17.9505 151.227 17.8302 150.993 17.6996C150.759 17.569 150.484 17.4522 150.168 17.3491C149.859 17.2391 149.491 17.1841 149.065 17.1841C148.68 17.1841 148.343 17.2322 148.055 17.3284C147.766 17.4178 147.522 17.545 147.323 17.7099C147.13 17.8749 146.986 18.0742 146.889 18.3079C146.793 18.5348 146.745 18.7856 146.745 19.0606C146.745 19.4111 146.841 19.7033 147.034 19.937C147.233 20.1707 147.494 20.37 147.817 20.535C148.14 20.7 148.508 20.8477 148.921 20.9783C149.333 21.1089 149.756 21.2498 150.189 21.4011C150.622 21.5454 151.045 21.7173 151.457 21.9166C151.869 22.1091 152.237 22.3565 152.56 22.6589C152.883 22.9545 153.141 23.3188 153.334 23.7519C153.533 24.1849 153.633 24.7107 153.633 25.3294C153.633 26.003 153.516 26.6353 153.282 27.2265C153.055 27.8107 152.718 28.3228 152.272 28.7627C151.832 29.1958 151.292 29.5395 150.653 29.7938C150.014 30.0412 149.282 30.165 148.457 30.165C147.982 30.165 147.515 30.1169 147.054 30.0206C146.594 29.9313 146.151 29.8007 145.724 29.6288C145.305 29.457 144.91 29.2508 144.539 29.0102C144.168 28.7696 143.838 28.5015 143.549 28.206L144.363 26.8759C144.432 26.7797 144.522 26.7006 144.631 26.6388C144.741 26.5701 144.858 26.5357 144.982 26.5357C145.154 26.5357 145.339 26.6079 145.539 26.7522C145.738 26.8897 145.975 27.0443 146.25 27.2162C146.525 27.388 146.845 27.5461 147.209 27.6905C147.58 27.8279 148.024 27.8967 148.539 27.8967C149.33 27.8967 149.941 27.7111 150.374 27.3399C150.807 26.9618 151.024 26.4223 151.024 25.7212C151.024 25.3294 150.924 25.0097 150.725 24.7623C150.533 24.5148 150.275 24.3086 149.952 24.1437C149.629 23.9718 149.261 23.8275 148.848 23.7106C148.436 23.5938 148.017 23.4666 147.591 23.3291C147.164 23.1917 146.745 23.0267 146.333 22.8342C145.92 22.6418 145.553 22.3909 145.23 22.0816C144.906 21.7722 144.645 21.3873 144.446 20.9268C144.253 20.4594 144.157 19.8854 144.157 19.2049C144.157 18.6619 144.264 18.1326 144.477 17.6171C144.697 17.1016 145.013 16.6445 145.425 16.2458C145.838 15.8472 146.346 15.5275 146.951 15.287C147.556 15.0464 148.25 14.9261 149.034 14.9261C149.914 14.9261 150.725 15.0636 151.467 15.3385C152.21 15.6135 152.842 15.9984 153.364 16.4933L152.674 17.8027ZM165.847 17.3697H161.352V30H158.578V17.3697H154.083V15.0911H165.847V17.3697ZM169.963 30H167.179V15.0911H169.963V30ZM183.096 17.3697H178.601V30H175.827V17.3697H171.332V15.0911H183.096V17.3697ZM190.429 27.7626C190.965 27.7626 191.443 27.6733 191.862 27.4946C192.288 27.3158 192.646 27.065 192.934 26.7419C193.223 26.4188 193.443 26.027 193.594 25.5665C193.752 25.106 193.831 24.5904 193.831 24.0199V15.0911H196.605V24.0199C196.605 24.9066 196.461 25.728 196.172 26.4841C195.89 27.2334 195.481 27.8829 194.945 28.4328C194.416 28.9758 193.77 29.402 193.007 29.7113C192.244 30.0137 191.384 30.165 190.429 30.165C189.467 30.165 188.604 30.0137 187.841 29.7113C187.078 29.402 186.429 28.9758 185.892 28.4328C185.363 27.8829 184.954 27.2334 184.665 26.4841C184.384 25.728 184.243 24.9066 184.243 24.0199V15.0911H187.016V24.0096C187.016 24.5801 187.092 25.0957 187.243 25.5562C187.401 26.0167 187.625 26.412 187.913 26.7419C188.209 27.065 188.566 27.3158 188.986 27.4946C189.412 27.6733 189.893 27.7626 190.429 27.7626ZM209.528 17.3697H205.032V30H202.259V17.3697H197.764V15.0911H209.528V17.3697ZM213.644 17.2975V21.432H218.861V23.5663H213.644V27.7832H220.263V30H210.86V15.0911H220.263V17.2975H213.644Z" fill="white"/>
</g>
<defs>
<clipPath id="clip0_320_48">
<rect width="222" height="42" fill="white" transform="translate(0 0.673523)"/>
</clipPath>
</defs>
</svg>
