<svg width="156" height="54" viewBox="0 0 156 54" fill="none" xmlns="http://www.w3.org/2000/svg">
<path fill-rule="evenodd" clip-rule="evenodd" d="M26.7819 7.71252L20.9329 27.5365H17.0159L20.968 14.1458L15.4351 27.5365H12.6598L14.8906 14.453L11.0088 27.5365H7.0918L12.9409 7.71252H18.7548L18.0347 11.9231L17.174 16.9649L20.9504 7.71252H26.7819ZM28.5911 7.71252H36.0737L34.9144 11.6882H31.9284L30.8043 15.4469H33.6146L32.4905 19.2238H29.6977L28.4155 23.5609H31.7001L30.5232 27.5365H22.742L28.5911 7.71252ZM45.4358 7.71252L42.1336 27.5365H37.5492L38.3571 23.9585H36.7587L35.4414 27.5365H30.7867L38.9543 7.71252H45.4358ZM39.2705 20.4527L41.0797 12.1399L37.7424 20.4527H39.2705ZM48.7555 7.71252H52.1279L53.6034 7.73058L54.8153 7.80287L55.3247 7.85709L55.7638 7.9113L56.1327 7.98358L56.4313 8.05587L56.6772 8.1643L56.9056 8.25466L57.1163 8.38115L57.3096 8.50765L57.3974 8.57993L57.4676 8.67028L57.5379 8.74257L57.6257 8.81485L57.6784 8.92328L57.7487 8.99557L57.8014 9.08593L57.8541 9.19434L57.9243 9.37506L57.9946 9.59191L58.0473 9.80877L58.0824 10.0256L58.1 10.2425V10.4774L58.0824 10.6943L58.0648 10.9292L58.0121 11.2002L57.9595 11.5436L57.7662 12.3568L57.4676 13.423L57.0988 14.688L55.0437 21.6453L54.6748 22.8561L54.3411 23.8681L54.0249 24.6452L53.902 24.9524L53.779 25.2054L53.6561 25.4222L53.5156 25.6391L53.3926 25.8198L53.2345 26.0186L53.0764 26.1993L52.9359 26.3438L52.7603 26.4884L52.6022 26.6149L52.4265 26.7414L52.2333 26.8498L52.0577 26.9583L51.8469 27.0486L51.6713 27.139L51.4605 27.2293L51.2673 27.2835L51.0389 27.3378L50.8281 27.3739L50.5647 27.4462L49.985 27.5004L49.3176 27.5185L48.5623 27.5365H42.9064L48.7555 7.71252ZM52.2509 11.1099L48.3866 24.1392H48.6326L48.8433 24.1211L49.0365 24.0849L49.2122 24.0307L49.3 24.0127L49.3703 23.9585L49.4405 23.9223L49.5108 23.8862L49.5635 23.85L49.6162 23.7958L49.6689 23.7597L49.7216 23.6874L49.7743 23.6332L49.8094 23.5609L49.9148 23.3802L50.0202 23.1453L50.1431 22.8561L50.4066 22.1694L50.6701 21.2659L52.9535 13.5676L53.2521 12.4652L53.3399 12.1038L53.375 11.9592L53.3926 11.8508V11.8147V11.7424V11.7062V11.6701V11.6339L53.375 11.5978V11.5617L53.3575 11.5075L53.3399 11.4713V11.4352L53.3223 11.4171L53.3048 11.381L53.2697 11.3629L53.2521 11.3267L53.2345 11.3087L53.1994 11.2906L53.1643 11.2725L53.1291 11.2364L53.094 11.2183L53.0589 11.2002L52.971 11.1822L52.8657 11.146L52.7251 11.128H52.6022L52.4265 11.1099H52.2509ZM67.6552 19.3142L66.8824 21.8441L66.5662 22.8019L66.2852 23.5428L66.1622 23.85L66.0217 24.1392L65.8461 24.4464L65.688 24.7174L65.4948 25.0066L65.3016 25.2776L65.0732 25.5487L64.8449 25.8017L64.599 26.0547L64.3531 26.2896L64.072 26.5245L63.8085 26.7233L63.5451 26.9221L63.2465 27.0848L62.9479 27.2474L62.6493 27.392L62.3155 27.5365L61.9994 27.6269L61.6656 27.7353L61.3319 27.8076L60.9806 27.8618L60.6293 27.898L60.278 27.9341H59.9091H59.5754L59.2417 27.898L58.9431 27.8618L58.6445 27.8076L58.3459 27.7353L58.0824 27.645L57.8365 27.5365L57.573 27.41L57.3623 27.2835L57.1339 27.1209L56.9583 26.9583L56.7826 26.7775L56.607 26.5607L56.484 26.3438L56.3611 26.127L56.2557 25.874L56.1678 25.621L56.1151 25.3499L56.08 25.0608L56.0449 24.7897V24.4825L56.0625 24.1934L56.0976 23.9042L56.1327 23.597L56.2908 22.8742L56.5543 21.9164L57.2744 19.3142L58.2932 15.9168L58.6972 14.5434L59.066 13.3688L59.3822 12.4291L59.6457 11.6882L59.7862 11.381L59.9267 11.0918L60.0672 10.7846L60.2605 10.5135L60.4537 10.2244L60.6469 9.95334L60.8576 9.68226L61.086 9.42928L61.3319 9.17628L61.5778 8.94136L61.8413 8.70642L62.1223 8.50765L62.3858 8.30887L62.6844 8.14622L63.0006 7.98358L63.2992 7.83901L63.6153 7.69444L63.9491 7.60409L64.2828 7.49566L64.6165 7.42338L64.9503 7.36917L65.3016 7.33303L65.6704 7.29688H66.0217H66.3554L66.6892 7.33303L67.0053 7.36917L67.3039 7.42338L67.585 7.49566L67.866 7.58601L68.1295 7.69444L68.3754 7.80287L68.5862 7.94744L68.8145 8.11009L68.9902 8.27272L69.1658 8.45344L69.3063 8.67028L69.4468 8.88714L69.5698 9.10399L69.6752 9.35699L69.7455 9.60998L69.8157 9.88104L69.8508 10.1702L69.886 10.4413V10.7485V11.0376L69.8508 11.3267L69.7981 11.6339L69.6576 12.3568L69.3941 13.3146L68.674 15.9168L67.6552 19.3142ZM65.0908 12.7905L65.2664 12.1761L65.3894 11.6701L65.4245 11.4532L65.4596 11.2906L65.4772 11.146V11.0918V11.0376V10.9834L65.4596 10.9292V10.893L65.4421 10.8569L65.4245 10.8388L65.4069 10.8027L65.3894 10.7665L65.3543 10.7485L65.3367 10.7123L65.3016 10.6943L65.284 10.6762L65.2489 10.6581H65.1962L65.161 10.64H65.1084H65.0557H64.9678L64.88 10.6581H64.8449L64.8097 10.6762L64.7746 10.6943L64.7219 10.7123L64.6868 10.7485L64.6517 10.7665L64.5638 10.8207L64.4936 10.875L64.4233 10.9473L64.4058 10.9834L64.3706 11.0557L64.2828 11.1822L64.195 11.3629L64.1072 11.5797L64.0017 11.8327L63.9139 12.1038L63.6856 12.7905L60.9455 22.0429L60.7347 22.838L60.5766 23.4344L60.5063 23.6874L60.4888 23.8862L60.4537 24.0669V24.1211V24.1753V24.2295V24.2837L60.4712 24.3199L60.4888 24.356V24.3922L60.5063 24.4283L60.5239 24.4464L60.559 24.4825L60.5942 24.5006L60.6293 24.5367L60.6644 24.5548L60.6996 24.5729H60.7523L60.8049 24.5909H60.8576H60.9103H60.9455H61.0157L61.0684 24.5729H61.1211L61.1738 24.5548L61.2089 24.5367L61.2616 24.4825L61.3143 24.4645L61.3495 24.4283L61.3846 24.4102L61.4197 24.3741L61.4724 24.3379L61.5076 24.2837L61.5427 24.2295L61.6129 24.1211L61.6832 23.9946L61.771 23.8139L61.9467 23.326L62.1574 22.7116L62.4034 21.9164L65.0908 12.7905ZM89.6464 7.71252L81.7949 27.5365H76.1917L76.5079 25.1692L76.9119 22.6393L77.9131 17.1456L73.5921 27.5365H68.0065L71.8708 7.71252H76.2269L74.646 14.6338L73.1179 21.302L74.1191 18.519L75.3486 15.3205L78.4049 7.71252H83.0596L81.5841 14.2543L79.8628 21.7899L85.2903 7.71252H89.6464ZM90.5422 7.71252H95.0388L96.0048 7.73058L96.8479 7.80287L97.2344 7.87515L97.5681 7.92936L97.8491 8.00166L98.1302 8.11009L98.2356 8.1643L98.3585 8.20044L98.4639 8.27272L98.5693 8.32693L98.6747 8.41728L98.7625 8.48958L98.8679 8.57993L98.9557 8.67028L99.0084 8.76064L99.0962 8.88714L99.1665 8.99557L99.2367 9.10399L99.2894 9.2305L99.3421 9.35699L99.3948 9.50155L99.4475 9.62806L99.4651 9.79069L99.5002 9.95334L99.5178 10.116L99.5353 10.3147L99.5178 10.6943L99.4826 11.146L99.43 11.6339L99.3246 12.1761L99.1665 12.7363L99.0084 13.3507L98.8679 13.7844L98.7274 14.1639L98.5868 14.5253L98.4639 14.8325L98.3058 15.1217L98.1477 15.3747L97.9896 15.5915L97.9018 15.6819L97.814 15.7903L97.6383 15.9529L97.4276 16.1156L97.1992 16.2421L96.9182 16.3867L96.6372 16.5132L96.3386 16.6397L95.9873 16.7481L95.6184 16.8565L95.9521 16.9469L96.2683 17.0734L96.5318 17.2179L96.6723 17.2902L96.7777 17.3806L96.8655 17.4709L96.9709 17.5432L97.0587 17.6516L97.129 17.742L97.1992 17.8504L97.2695 17.9588L97.3046 18.0673L97.3397 18.1938L97.3749 18.3022L97.3924 18.4468L97.41 18.5733L97.4276 18.7178V19.025L97.41 19.3684L97.3573 19.7298L97.2695 20.1454L97.1817 20.5972L97.0587 21.049L96.4966 22.8742L96.198 23.8139L96.04 24.2295L95.8994 24.6271L95.7413 24.9885L95.5657 25.3319L95.4076 25.621L95.232 25.874L95.0739 26.0908L94.8807 26.3077L94.6699 26.5065L94.4767 26.6872L94.2483 26.8318L94.0376 26.9763L93.7917 27.0848L93.5633 27.1932L93.2999 27.2655L92.9661 27.3378L92.5797 27.392L92.1581 27.4642L91.1394 27.5185L89.8747 27.5365H84.6755L90.5422 7.71252ZM94.0376 11.1099L92.7378 15.5192H92.8783H92.9837L93.0891 15.4831H93.1769H93.3174L93.4755 15.465L93.616 15.4289L93.7565 15.3927L93.7917 15.3747L93.8619 15.3566L93.9146 15.3205L93.9673 15.2843L94.02 15.2662L94.0551 15.212L94.1078 15.1578L94.143 15.1217L94.1781 15.0675L94.2132 15.0132L94.2835 14.8506L94.3889 14.6518L94.4767 14.3988L94.6875 13.7844L94.9509 12.9893L95.0739 12.5556L95.109 12.3749L95.1442 12.1942L95.1617 12.0315L95.1793 11.905V11.7785V11.7424V11.6882L95.1617 11.5978V11.5617L95.1442 11.5075L95.1266 11.4713V11.4532L95.109 11.4171L95.0915 11.381L95.0739 11.3629V11.3448L95.0563 11.3087L95.0388 11.2906L95.0036 11.2725H94.9861L94.9509 11.2364L94.9334 11.2183L94.8982 11.2002H94.8807L94.7928 11.1822L94.705 11.1641L94.6172 11.146L94.4942 11.128L94.3537 11.1099H94.0376ZM91.8244 18.5913L90.1733 24.1392L90.4017 24.1211L90.6124 24.103L90.8056 24.0849L90.9813 24.0488L91.1394 23.9946L91.2623 23.9223L91.3326 23.8862L91.3853 23.8681L91.438 23.832L91.4907 23.7958L91.5434 23.7597L91.5785 23.6874L91.6136 23.6512L91.6663 23.579L91.7541 23.4344L91.842 23.2718L91.9298 23.073L92.0176 22.838L92.1054 22.585L92.1933 22.2959L92.7378 20.4346L92.8256 20.1454L92.8783 19.8744L92.931 19.6214L92.9837 19.4226L93.0012 19.26V19.1696V19.0973V19.0431L92.9837 18.9889L92.9661 18.9347V18.9166L92.9485 18.8985L92.931 18.8624L92.8959 18.8443L92.8783 18.8082L92.8256 18.7901L92.7729 18.754L92.7202 18.7359L92.5972 18.6998L92.4392 18.6455L92.2635 18.6275L92.0527 18.6094L91.8244 18.5913ZM102.592 7.71252H105.771L107.229 7.73058L108.423 7.7848L109.337 7.89323L109.705 7.94744L109.986 8.00166L110.127 8.03779L110.25 8.09201L110.373 8.14622L110.461 8.20044L110.566 8.25466L110.671 8.32693L110.777 8.41728L110.847 8.50765L110.935 8.59801L111.023 8.70642L111.111 8.79679L111.181 8.92328L111.234 9.03171L111.286 9.17628L111.339 9.30277L111.392 9.44734L111.427 9.59191L111.462 9.75455L111.497 9.9172L111.515 10.0979V10.2967V10.5135L111.479 10.9292L111.427 11.4171L111.321 11.9412L111.198 12.5014L111.023 13.1339L110.847 13.676L110.671 14.1639L110.496 14.6338L110.32 15.0494L110.144 15.4108L109.951 15.7361L109.776 15.9891L109.67 16.1337L109.582 16.224L109.495 16.3324L109.389 16.4228L109.284 16.4951L109.161 16.6035L108.933 16.73L108.651 16.8746L108.37 16.983L108.054 17.0553L107.721 17.1456L107.334 17.1818L107.633 17.2721L107.879 17.3986L108.125 17.5071L108.318 17.6336L108.406 17.7058L108.493 17.7601L108.564 17.8323L108.634 17.9046L108.687 17.9769L108.739 18.0492L108.792 18.1215L108.827 18.2118L108.897 18.3564L108.95 18.519L108.985 18.6636L109.02 18.8082L109.038 18.9708L109.055 19.0973V19.2419V19.3684L109.038 19.531L108.985 19.766L108.845 20.3804L108.616 21.2116L108.3 22.2959L106.754 27.5365H102.574L104.524 20.9406L104.717 20.2177L104.787 19.9286L104.857 19.6575L104.893 19.4226L104.91 19.26V19.1696V19.0973V19.0431L104.893 18.9889L104.875 18.9347L104.857 18.8805L104.822 18.8443L104.787 18.8082L104.752 18.7901L104.699 18.754L104.664 18.7178L104.594 18.6998L104.524 18.6636L104.453 18.6455L104.278 18.6094L104.102 18.5913H103.874L101.222 27.5365H96.7425L102.592 7.71252ZM106.087 11.1099L104.787 15.5192H104.98L105.139 15.4831L105.297 15.465L105.437 15.4469L105.578 15.4108L105.683 15.3747L105.806 15.3385L105.911 15.2843L105.964 15.2482L106.017 15.194L106.034 15.1578L106.087 15.0855L106.14 15.0313L106.192 14.941L106.298 14.7783L106.386 14.5615L106.473 14.3085L106.561 14.0374L106.667 13.7302L106.983 12.6459L107.053 12.411L107.106 12.1942L107.141 12.0134L107.158 11.8508V11.7785V11.7062V11.652L107.141 11.5978V11.5436L107.123 11.4713L107.088 11.4352L107.071 11.399L107.036 11.3629L107 11.3267L106.965 11.3087L106.93 11.2725L106.895 11.2364L106.842 11.2183L106.79 11.2002L106.719 11.1822L106.579 11.146L106.456 11.128L106.28 11.1099H106.087ZM121.175 19.3142L120.402 21.8441L120.069 22.8019L119.805 23.5428L119.665 23.85L119.542 24.1392L119.366 24.4464L119.19 24.7174L119.015 25.0066L118.804 25.2776L118.593 25.5487L118.347 25.8017L118.119 26.0547L117.855 26.2896L117.592 26.5245L117.328 26.7233L117.047 26.9221L116.766 27.0848L116.468 27.2474L116.152 27.392L115.835 27.5365L115.519 27.6269L115.186 27.7353L114.834 27.8076L114.501 27.8618L114.149 27.898L113.798 27.9341H113.429H113.078L112.762 27.898L112.463 27.8618L112.147 27.8076L111.866 27.7353L111.602 27.645L111.339 27.5365L111.093 27.41L110.865 27.2835L110.654 27.1209L110.461 26.9583L110.303 26.7775L110.127 26.5607L109.986 26.3438L109.881 26.127L109.776 25.874L109.688 25.621L109.618 25.3499L109.582 25.0608L109.547 24.7897V24.4825L109.565 24.1934L109.6 23.9042L109.653 23.597L109.811 22.8742L110.057 21.9164L110.794 19.3142L111.796 15.9168L112.2 14.5434L112.586 13.3688L112.902 12.4291L113.166 11.6882L113.306 11.381L113.447 11.0918L113.587 10.7846L113.78 10.5135L113.956 10.2244L114.167 9.95334L114.36 9.68226L114.606 9.42928L114.834 9.17628L115.098 8.94136L115.361 8.70642L115.642 8.50765L115.906 8.30887L116.204 8.14622L116.521 7.98358L116.819 7.83901L117.135 7.69444L117.451 7.60409L117.803 7.49566L118.136 7.42338L118.47 7.36917L118.822 7.33303L119.173 7.29688H119.542H119.875L120.209 7.33303L120.508 7.36917L120.824 7.42338L121.105 7.49566L121.368 7.58601L121.649 7.69444L121.878 7.80287L122.106 7.94744L122.317 8.11009L122.51 8.27272L122.668 8.45344L122.826 8.67028L122.967 8.88714L123.09 9.10399L123.178 9.35699L123.265 9.60998L123.336 9.88104L123.371 10.1702L123.406 10.4413V10.7485V11.0376L123.371 11.3267L123.318 11.6339L123.16 12.3568L122.914 13.3146L122.194 15.9168L121.175 19.3142ZM118.611 12.7905L118.769 12.1761L118.909 11.6701L118.944 11.4532L118.98 11.2906L118.997 11.146V11.0918V11.0376V10.9834L118.98 10.9292V10.893L118.962 10.8569L118.944 10.8388L118.927 10.8027L118.909 10.7665L118.874 10.7485L118.857 10.7123L118.822 10.6943L118.786 10.6762L118.751 10.6581H118.716L118.681 10.64H118.628H118.576H118.488L118.4 10.6581H118.347L118.312 10.6762L118.277 10.6943L118.242 10.7123L118.207 10.7485L118.172 10.7665L118.084 10.8207L118.014 10.875L117.943 10.9473L117.908 10.9834L117.873 11.0557L117.803 11.1822L117.715 11.3629L117.627 11.5797L117.522 11.8327L117.416 12.1038L117.206 12.7905L114.465 22.0429L114.255 22.838L114.097 23.4344L114.026 23.6874L113.991 23.8862L113.956 24.0669V24.1211V24.1753V24.2295V24.2837L113.974 24.3199L113.991 24.356L114.009 24.3922L114.026 24.4283L114.044 24.4464L114.079 24.4825L114.114 24.5006L114.149 24.5367L114.184 24.5548L114.22 24.5729H114.272L114.325 24.5909H114.36H114.413H114.465H114.536L114.588 24.5729H114.641L114.694 24.5548L114.729 24.5367L114.782 24.4825L114.817 24.4645L114.852 24.4283L114.905 24.4102L114.94 24.3741L114.992 24.3379L115.028 24.2837L115.063 24.2295L115.133 24.1211L115.203 23.9946L115.273 23.8139L115.467 23.326L115.66 22.7116L115.923 21.9164L118.611 12.7905ZM133.102 19.3142L132.311 21.8441L131.995 22.8019L131.732 23.5428L131.591 23.85L131.451 24.1392L131.293 24.4464L131.117 24.7174L130.941 25.0066L130.73 25.2776L130.52 25.5487L130.274 25.8017L130.045 26.0547L129.782 26.2896L129.518 26.5245L129.237 26.7233L128.974 26.9221L128.693 27.0848L128.377 27.2474L128.078 27.392L127.762 27.5365L127.446 27.6269L127.095 27.7353L126.761 27.8076L126.427 27.8618L126.076 27.898L125.724 27.9341H125.338H125.004L124.688 27.898L124.39 27.8618L124.073 27.8076L123.792 27.7353L123.529 27.645L123.265 27.5365L123.019 27.41L122.791 27.2835L122.58 27.1209L122.387 26.9583L122.211 26.7775L122.053 26.5607L121.913 26.3438L121.79 26.127L121.702 25.874L121.614 25.621L121.544 25.3499L121.509 25.0608L121.474 24.7897V24.4825L121.491 24.1934L121.526 23.9042L121.579 23.597L121.737 22.8742L121.983 21.9164L122.703 19.3142L123.722 15.9168L124.126 14.5434L124.495 13.3688L124.829 12.4291L125.092 11.6882L125.233 11.381L125.356 11.0918L125.514 10.7846L125.707 10.5135L125.883 10.2244L126.093 9.95334L126.287 9.68226L126.532 9.42928L126.761 9.17628L127.024 8.94136L127.288 8.70642L127.551 8.50765L127.832 8.30887L128.131 8.14622L128.429 7.98358L128.746 7.83901L129.062 7.69444L129.378 7.60409L129.712 7.49566L130.063 7.42338L130.397 7.36917L130.748 7.33303L131.099 7.29688H131.451H131.802L132.136 7.33303L132.434 7.36917L132.733 7.42338L133.031 7.49566L133.295 7.58601L133.576 7.69444L133.804 7.80287L134.033 7.94744L134.243 8.11009L134.437 8.27272L134.595 8.45344L134.753 8.67028L134.893 8.88714L134.999 9.10399L135.104 9.35699L135.192 9.60998L135.262 9.88104L135.297 10.1702L135.332 10.4413V10.7485V11.0376L135.297 11.3267L135.245 11.6339L135.087 12.3568L134.841 13.3146L134.103 15.9168L133.102 19.3142ZM130.537 12.7905L130.695 12.1761L130.836 11.6701L130.871 11.4532L130.906 11.2906L130.924 11.146V11.0918V11.0376V10.9834L130.906 10.9292V10.893L130.889 10.8569L130.871 10.8388L130.853 10.8027L130.836 10.7665L130.801 10.7485L130.783 10.7123L130.748 10.6943L130.713 10.6762L130.678 10.6581H130.625L130.59 10.64H130.537H130.502H130.414L130.326 10.6581H130.274L130.239 10.6762L130.203 10.6943L130.151 10.7123L130.116 10.7485L130.098 10.7665L130.01 10.8207L129.94 10.875L129.87 10.9473L129.835 10.9834L129.799 11.0557L129.712 11.1822L129.641 11.3629L129.554 11.5797L129.448 11.8327L129.343 12.1038L129.132 12.7905L126.392 22.0429L126.164 22.838L126.023 23.4344L125.953 23.6874L125.918 23.8862L125.883 24.0669V24.1211V24.1753V24.2295V24.2837L125.9 24.3199L125.918 24.356L125.935 24.3922L125.953 24.4283L125.97 24.4464L126.006 24.4825L126.041 24.5006L126.076 24.5367L126.111 24.5548L126.146 24.5729H126.181L126.234 24.5909H126.287H126.339H126.392H126.462L126.515 24.5729H126.568L126.603 24.5548L126.638 24.5367L126.691 24.4825L126.743 24.4645L126.778 24.4283L126.831 24.4102L126.866 24.3741L126.919 24.3379L126.954 24.2837L126.989 24.2295L127.042 24.1211L127.112 23.9946L127.2 23.8139L127.393 23.326L127.586 22.7116L127.85 21.9164L130.537 12.7905ZM148.91 7.71252L143.676 16.6577L143.289 27.5365H138.67L139.337 19.0431L136.825 27.5365H132.329L138.195 7.71252H142.692L140.409 15.4108L144.694 7.71252H148.91Z" fill="white"/>
<path fill-rule="evenodd" clip-rule="evenodd" d="M78.0088 34.0067H7.24023V32.832H148.76V34.0067H78.0088Z" fill="#848484"/>
<path fill-rule="evenodd" clip-rule="evenodd" d="M18.1574 46.5778V39.0273H15.8822L14.5936 45.0345L13.2648 39.0273H11.0098V46.5778H12.5198V40.6949L13.8386 46.5778H15.3487L16.6473 40.6949V46.5778H18.1574Z" fill="white"/>
<path fill-rule="evenodd" clip-rule="evenodd" d="M35.4423 46.5778L32.9054 39.0273H31.2343L28.627 46.5778H30.1672L30.6605 45.0552H33.4088L33.892 46.5778H35.4423ZM32.996 43.7606H31.0833L32.0397 40.8088L32.996 43.7606Z" fill="white"/>
<path fill-rule="evenodd" clip-rule="evenodd" d="M50.4827 40.322V39.0273H44.6035V40.322H46.8283V46.5778H48.3384V40.322H50.4827Z" fill="white"/>
<path fill-rule="evenodd" clip-rule="evenodd" d="M66.5295 46.5778V45.2831H62.553V43.3256H66.0664V42.0309H62.553V40.322H66.3483V39.0273H61.043V46.5778H66.5295Z" fill="white"/>
<path fill-rule="evenodd" clip-rule="evenodd" d="M83.4104 46.5778V46.2981C83.1789 46.1635 83.0883 46.0081 83.0883 45.6767C83.048 43.4499 83.0077 43.3463 82.0715 42.932C82.897 42.6006 83.3097 41.9895 83.3097 41.0677C83.3097 39.8974 82.6352 39.0273 81.3366 39.0273H77.4004V46.5778H78.9104V43.5845H80.642C81.2963 43.5845 81.5782 43.8538 81.5782 44.4856L81.5581 45.2831C81.5581 45.9874 81.5983 46.2153 81.7896 46.5778H83.4104ZM81.7997 41.2852C81.7997 41.9584 81.5883 42.2899 80.7326 42.2899H78.9104V40.322H80.7326C81.5581 40.322 81.7997 40.6327 81.7997 41.2852Z" fill="white"/>
<path fill-rule="evenodd" clip-rule="evenodd" d="M95.6429 46.5778V39.0273H94.1328V46.5778H95.6429Z" fill="white"/>
<path fill-rule="evenodd" clip-rule="evenodd" d="M113.007 46.5778L110.47 39.0273H108.799L106.191 46.5778H107.732L108.225 45.0552H110.973L111.456 46.5778H113.007ZM110.56 43.7606H108.648L109.604 40.8088L110.56 43.7606Z" fill="white"/>
<path fill-rule="evenodd" clip-rule="evenodd" d="M128.662 46.5778V45.2831H125.149V39.0273H123.639V46.5778H128.662Z" fill="white"/>
<path fill-rule="evenodd" clip-rule="evenodd" d="M144.99 44.3098C144.99 43.1187 144.406 42.5594 143.047 42.2901L141.899 42.0623C140.822 41.8448 140.51 41.6273 140.51 41.0783C140.51 40.5087 141.003 40.1462 141.778 40.1462C142.735 40.1462 143.319 40.5605 143.319 41.3269H144.728C144.728 39.7319 143.641 38.9033 141.849 38.9033C140.087 38.9033 139.07 39.7526 139.07 41.2233C139.07 42.4041 139.644 42.953 141.134 43.2534L142.161 43.4605C143.168 43.6676 143.54 43.8851 143.54 44.4962C143.54 45.128 142.976 45.4594 142.06 45.4594C141.033 45.4594 140.409 45.0141 140.409 44.2062H138.939C138.939 45.8219 140.107 46.7023 141.98 46.7023C143.872 46.7023 144.99 45.8427 144.99 44.3098Z" fill="white"/>
<path fill-rule="evenodd" clip-rule="evenodd" d="M26.7819 7.71252L20.9329 27.5365H17.0159L20.968 14.1458L15.4351 27.5365H12.6598L14.8906 14.453L11.0088 27.5365H7.0918L12.9409 7.71252H18.7548L18.0347 11.9231L17.174 16.9649L20.9504 7.71252H26.7819ZM28.5911 7.71252H36.0737L34.9144 11.6882H31.9284L30.8043 15.4469H33.6146L32.4905 19.2238H29.6977L28.4155 23.5609H31.7001L30.5232 27.5365H22.742L28.5911 7.71252ZM45.4358 7.71252L42.1336 27.5365H37.5492L38.3571 23.9585H36.7587L35.4414 27.5365H30.7867L38.9543 7.71252H45.4358ZM39.2705 20.4527L41.0797 12.1399L37.7424 20.4527H39.2705ZM48.7555 7.71252H52.1279L53.6034 7.73058L54.8153 7.80287L55.3247 7.85709L55.7638 7.9113L56.1327 7.98358L56.4313 8.05587L56.6772 8.1643L56.9056 8.25466L57.1163 8.38115L57.3096 8.50765L57.3974 8.57993L57.4676 8.67028L57.5379 8.74257L57.6257 8.81485L57.6784 8.92328L57.7487 8.99557L57.8014 9.08593L57.8541 9.19434L57.9243 9.37506L57.9946 9.59191L58.0473 9.80877L58.0824 10.0256L58.1 10.2425V10.4774L58.0824 10.6943L58.0648 10.9292L58.0121 11.2002L57.9595 11.5436L57.7662 12.3568L57.4676 13.423L57.0988 14.688L55.0437 21.6453L54.6748 22.8561L54.3411 23.8681L54.0249 24.6452L53.902 24.9524L53.779 25.2054L53.6561 25.4222L53.5156 25.6391L53.3926 25.8198L53.2345 26.0186L53.0764 26.1993L52.9359 26.3438L52.7603 26.4884L52.6022 26.6149L52.4265 26.7414L52.2333 26.8498L52.0577 26.9583L51.8469 27.0486L51.6713 27.139L51.4605 27.2293L51.2673 27.2835L51.0389 27.3378L50.8281 27.3739L50.5647 27.4462L49.985 27.5004L49.3176 27.5185L48.5623 27.5365H42.9064L48.7555 7.71252ZM52.2509 11.1099L48.3866 24.1392H48.6326L48.8433 24.1211L49.0365 24.0849L49.2122 24.0307L49.3 24.0127L49.3703 23.9585L49.4405 23.9223L49.5108 23.8862L49.5635 23.85L49.6162 23.7958L49.6689 23.7597L49.7216 23.6874L49.7743 23.6332L49.8094 23.5609L49.9148 23.3802L50.0202 23.1453L50.1431 22.8561L50.4066 22.1694L50.6701 21.2659L52.9535 13.5676L53.2521 12.4652L53.3399 12.1038L53.375 11.9592L53.3926 11.8508V11.8147V11.7424V11.7062V11.6701V11.6339L53.375 11.5978V11.5617L53.3575 11.5075L53.3399 11.4713V11.4352L53.3223 11.4171L53.3048 11.381L53.2697 11.3629L53.2521 11.3267L53.2345 11.3087L53.1994 11.2906L53.1643 11.2725L53.1291 11.2364L53.094 11.2183L53.0589 11.2002L52.971 11.1822L52.8657 11.146L52.7251 11.128H52.6022L52.4265 11.1099H52.2509ZM67.6552 19.3142L66.8824 21.8441L66.5662 22.8019L66.2852 23.5428L66.1622 23.85L66.0217 24.1392L65.8461 24.4464L65.688 24.7174L65.4948 25.0066L65.3016 25.2776L65.0732 25.5487L64.8449 25.8017L64.599 26.0547L64.3531 26.2896L64.072 26.5245L63.8085 26.7233L63.5451 26.9221L63.2465 27.0848L62.9479 27.2474L62.6493 27.392L62.3155 27.5365L61.9994 27.6269L61.6656 27.7353L61.3319 27.8076L60.9806 27.8618L60.6293 27.898L60.278 27.9341H59.9091H59.5754L59.2417 27.898L58.9431 27.8618L58.6445 27.8076L58.3459 27.7353L58.0824 27.645L57.8365 27.5365L57.573 27.41L57.3623 27.2835L57.1339 27.1209L56.9583 26.9583L56.7826 26.7775L56.607 26.5607L56.484 26.3438L56.3611 26.127L56.2557 25.874L56.1678 25.621L56.1151 25.3499L56.08 25.0608L56.0449 24.7897V24.4825L56.0625 24.1934L56.0976 23.9042L56.1327 23.597L56.2908 22.8742L56.5543 21.9164L57.2744 19.3142L58.2932 15.9168L58.6972 14.5434L59.066 13.3688L59.3822 12.4291L59.6457 11.6882L59.7862 11.381L59.9267 11.0918L60.0672 10.7846L60.2605 10.5135L60.4537 10.2244L60.6469 9.95334L60.8576 9.68226L61.086 9.42928L61.3319 9.17628L61.5778 8.94136L61.8413 8.70642L62.1223 8.50765L62.3858 8.30887L62.6844 8.14622L63.0006 7.98358L63.2992 7.83901L63.6153 7.69444L63.9491 7.60409L64.2828 7.49566L64.6165 7.42338L64.9503 7.36917L65.3016 7.33303L65.6704 7.29688H66.0217H66.3554L66.6892 7.33303L67.0053 7.36917L67.3039 7.42338L67.585 7.49566L67.866 7.58601L68.1295 7.69444L68.3754 7.80287L68.5862 7.94744L68.8145 8.11009L68.9902 8.27272L69.1658 8.45344L69.3063 8.67028L69.4468 8.88714L69.5698 9.10399L69.6752 9.35699L69.7455 9.60998L69.8157 9.88104L69.8508 10.1702L69.886 10.4413V10.7485V11.0376L69.8508 11.3267L69.7981 11.6339L69.6576 12.3568L69.3941 13.3146L68.674 15.9168L67.6552 19.3142ZM65.0908 12.7905L65.2664 12.1761L65.3894 11.6701L65.4245 11.4532L65.4596 11.2906L65.4772 11.146V11.0918V11.0376V10.9834L65.4596 10.9292V10.893L65.4421 10.8569L65.4245 10.8388L65.4069 10.8027L65.3894 10.7665L65.3543 10.7485L65.3367 10.7123L65.3016 10.6943L65.284 10.6762L65.2489 10.6581H65.1962L65.161 10.64H65.1084H65.0557H64.9678L64.88 10.6581H64.8449L64.8097 10.6762L64.7746 10.6943L64.7219 10.7123L64.6868 10.7485L64.6517 10.7665L64.5638 10.8207L64.4936 10.875L64.4233 10.9473L64.4058 10.9834L64.3706 11.0557L64.2828 11.1822L64.195 11.3629L64.1072 11.5797L64.0017 11.8327L63.9139 12.1038L63.6856 12.7905L60.9455 22.0429L60.7347 22.838L60.5766 23.4344L60.5063 23.6874L60.4888 23.8862L60.4537 24.0669V24.1211V24.1753V24.2295V24.2837L60.4712 24.3199L60.4888 24.356V24.3922L60.5063 24.4283L60.5239 24.4464L60.559 24.4825L60.5942 24.5006L60.6293 24.5367L60.6644 24.5548L60.6996 24.5729H60.7523L60.8049 24.5909H60.8576H60.9103H60.9455H61.0157L61.0684 24.5729H61.1211L61.1738 24.5548L61.2089 24.5367L61.2616 24.4825L61.3143 24.4645L61.3495 24.4283L61.3846 24.4102L61.4197 24.3741L61.4724 24.3379L61.5076 24.2837L61.5427 24.2295L61.6129 24.1211L61.6832 23.9946L61.771 23.8139L61.9467 23.326L62.1574 22.7116L62.4034 21.9164L65.0908 12.7905ZM89.6464 7.71252L81.7949 27.5365H76.1917L76.5079 25.1692L76.9119 22.6393L77.9131 17.1456L73.5921 27.5365H68.0065L71.8708 7.71252H76.2269L74.646 14.6338L73.1179 21.302L74.1191 18.519L75.3486 15.3205L78.4049 7.71252H83.0596L81.5841 14.2543L79.8628 21.7899L85.2903 7.71252H89.6464ZM90.5422 7.71252H95.0388L96.0048 7.73058L96.8479 7.80287L97.2344 7.87515L97.5681 7.92936L97.8491 8.00166L98.1302 8.11009L98.2356 8.1643L98.3585 8.20044L98.4639 8.27272L98.5693 8.32693L98.6747 8.41728L98.7625 8.48958L98.8679 8.57993L98.9557 8.67028L99.0084 8.76064L99.0962 8.88714L99.1665 8.99557L99.2367 9.10399L99.2894 9.2305L99.3421 9.35699L99.3948 9.50155L99.4475 9.62806L99.4651 9.79069L99.5002 9.95334L99.5178 10.116L99.5353 10.3147L99.5178 10.6943L99.4826 11.146L99.43 11.6339L99.3246 12.1761L99.1665 12.7363L99.0084 13.3507L98.8679 13.7844L98.7274 14.1639L98.5868 14.5253L98.4639 14.8325L98.3058 15.1217L98.1477 15.3747L97.9896 15.5915L97.9018 15.6819L97.814 15.7903L97.6383 15.9529L97.4276 16.1156L97.1992 16.2421L96.9182 16.3867L96.6372 16.5132L96.3386 16.6397L95.9873 16.7481L95.6184 16.8565L95.9521 16.9469L96.2683 17.0734L96.5318 17.2179L96.6723 17.2902L96.7777 17.3806L96.8655 17.4709L96.9709 17.5432L97.0587 17.6516L97.129 17.742L97.1992 17.8504L97.2695 17.9588L97.3046 18.0673L97.3397 18.1938L97.3749 18.3022L97.3924 18.4468L97.41 18.5733L97.4276 18.7178V19.025L97.41 19.3684L97.3573 19.7298L97.2695 20.1454L97.1817 20.5972L97.0587 21.049L96.4966 22.8742L96.198 23.8139L96.04 24.2295L95.8994 24.6271L95.7413 24.9885L95.5657 25.3319L95.4076 25.621L95.232 25.874L95.0739 26.0908L94.8807 26.3077L94.6699 26.5065L94.4767 26.6872L94.2483 26.8318L94.0376 26.9763L93.7917 27.0848L93.5633 27.1932L93.2999 27.2655L92.9661 27.3378L92.5797 27.392L92.1581 27.4642L91.1394 27.5185L89.8747 27.5365H84.6755L90.5422 7.71252ZM94.0376 11.1099L92.7378 15.5192H92.8783H92.9837L93.0891 15.4831H93.1769H93.3174L93.4755 15.465L93.616 15.4289L93.7565 15.3927L93.7917 15.3747L93.8619 15.3566L93.9146 15.3205L93.9673 15.2843L94.02 15.2662L94.0551 15.212L94.1078 15.1578L94.143 15.1217L94.1781 15.0675L94.2132 15.0132L94.2835 14.8506L94.3889 14.6518L94.4767 14.3988L94.6875 13.7844L94.9509 12.9893L95.0739 12.5556L95.109 12.3749L95.1442 12.1942L95.1617 12.0315L95.1793 11.905V11.7785V11.7424V11.6882L95.1617 11.5978V11.5617L95.1442 11.5075L95.1266 11.4713V11.4532L95.109 11.4171L95.0915 11.381L95.0739 11.3629V11.3448L95.0563 11.3087L95.0388 11.2906L95.0036 11.2725H94.9861L94.9509 11.2364L94.9334 11.2183L94.8982 11.2002H94.8807L94.7928 11.1822L94.705 11.1641L94.6172 11.146L94.4942 11.128L94.3537 11.1099H94.0376ZM91.8244 18.5913L90.1733 24.1392L90.4017 24.1211L90.6124 24.103L90.8056 24.0849L90.9813 24.0488L91.1394 23.9946L91.2623 23.9223L91.3326 23.8862L91.3853 23.8681L91.438 23.832L91.4907 23.7958L91.5434 23.7597L91.5785 23.6874L91.6136 23.6512L91.6663 23.579L91.7541 23.4344L91.842 23.2718L91.9298 23.073L92.0176 22.838L92.1054 22.585L92.1933 22.2959L92.7378 20.4346L92.8256 20.1454L92.8783 19.8744L92.931 19.6214L92.9837 19.4226L93.0012 19.26V19.1696V19.0973V19.0431L92.9837 18.9889L92.9661 18.9347V18.9166L92.9485 18.8985L92.931 18.8624L92.8959 18.8443L92.8783 18.8082L92.8256 18.7901L92.7729 18.754L92.7202 18.7359L92.5972 18.6998L92.4392 18.6455L92.2635 18.6275L92.0527 18.6094L91.8244 18.5913ZM102.592 7.71252H105.771L107.229 7.73058L108.423 7.7848L109.337 7.89323L109.705 7.94744L109.986 8.00166L110.127 8.03779L110.25 8.09201L110.373 8.14622L110.461 8.20044L110.566 8.25466L110.671 8.32693L110.777 8.41728L110.847 8.50765L110.935 8.59801L111.023 8.70642L111.111 8.79679L111.181 8.92328L111.234 9.03171L111.286 9.17628L111.339 9.30277L111.392 9.44734L111.427 9.59191L111.462 9.75455L111.497 9.9172L111.515 10.0979V10.2967V10.5135L111.479 10.9292L111.427 11.4171L111.321 11.9412L111.198 12.5014L111.023 13.1339L110.847 13.676L110.671 14.1639L110.496 14.6338L110.32 15.0494L110.144 15.4108L109.951 15.7361L109.776 15.9891L109.67 16.1337L109.582 16.224L109.495 16.3324L109.389 16.4228L109.284 16.4951L109.161 16.6035L108.933 16.73L108.651 16.8746L108.37 16.983L108.054 17.0553L107.721 17.1456L107.334 17.1818L107.633 17.2721L107.879 17.3986L108.125 17.5071L108.318 17.6336L108.406 17.7058L108.493 17.7601L108.564 17.8323L108.634 17.9046L108.687 17.9769L108.739 18.0492L108.792 18.1215L108.827 18.2118L108.897 18.3564L108.95 18.519L108.985 18.6636L109.02 18.8082L109.038 18.9708L109.055 19.0973V19.2419V19.3684L109.038 19.531L108.985 19.766L108.845 20.3804L108.616 21.2116L108.3 22.2959L106.754 27.5365H102.574L104.524 20.9406L104.717 20.2177L104.787 19.9286L104.857 19.6575L104.893 19.4226L104.91 19.26V19.1696V19.0973V19.0431L104.893 18.9889L104.875 18.9347L104.857 18.8805L104.822 18.8443L104.787 18.8082L104.752 18.7901L104.699 18.754L104.664 18.7178L104.594 18.6998L104.524 18.6636L104.453 18.6455L104.278 18.6094L104.102 18.5913H103.874L101.222 27.5365H96.7425L102.592 7.71252ZM106.087 11.1099L104.787 15.5192H104.98L105.139 15.4831L105.297 15.465L105.437 15.4469L105.578 15.4108L105.683 15.3747L105.806 15.3385L105.911 15.2843L105.964 15.2482L106.017 15.194L106.034 15.1578L106.087 15.0855L106.14 15.0313L106.192 14.941L106.298 14.7783L106.386 14.5615L106.473 14.3085L106.561 14.0374L106.667 13.7302L106.983 12.6459L107.053 12.411L107.106 12.1942L107.141 12.0134L107.158 11.8508V11.7785V11.7062V11.652L107.141 11.5978V11.5436L107.123 11.4713L107.088 11.4352L107.071 11.399L107.036 11.3629L107 11.3267L106.965 11.3087L106.93 11.2725L106.895 11.2364L106.842 11.2183L106.79 11.2002L106.719 11.1822L106.579 11.146L106.456 11.128L106.28 11.1099H106.087ZM121.175 19.3142L120.402 21.8441L120.069 22.8019L119.805 23.5428L119.665 23.85L119.542 24.1392L119.366 24.4464L119.19 24.7174L119.015 25.0066L118.804 25.2776L118.593 25.5487L118.347 25.8017L118.119 26.0547L117.855 26.2896L117.592 26.5245L117.328 26.7233L117.047 26.9221L116.766 27.0848L116.468 27.2474L116.152 27.392L115.835 27.5365L115.519 27.6269L115.186 27.7353L114.834 27.8076L114.501 27.8618L114.149 27.898L113.798 27.9341H113.429H113.078L112.762 27.898L112.463 27.8618L112.147 27.8076L111.866 27.7353L111.602 27.645L111.339 27.5365L111.093 27.41L110.865 27.2835L110.654 27.1209L110.461 26.9583L110.303 26.7775L110.127 26.5607L109.986 26.3438L109.881 26.127L109.776 25.874L109.688 25.621L109.618 25.3499L109.582 25.0608L109.547 24.7897V24.4825L109.565 24.1934L109.6 23.9042L109.653 23.597L109.811 22.8742L110.057 21.9164L110.794 19.3142L111.796 15.9168L112.2 14.5434L112.586 13.3688L112.902 12.4291L113.166 11.6882L113.306 11.381L113.447 11.0918L113.587 10.7846L113.78 10.5135L113.956 10.2244L114.167 9.95334L114.36 9.68226L114.606 9.42928L114.834 9.17628L115.098 8.94136L115.361 8.70642L115.642 8.50765L115.906 8.30887L116.204 8.14622L116.521 7.98358L116.819 7.83901L117.135 7.69444L117.451 7.60409L117.803 7.49566L118.136 7.42338L118.47 7.36917L118.822 7.33303L119.173 7.29688H119.542H119.875L120.209 7.33303L120.508 7.36917L120.824 7.42338L121.105 7.49566L121.368 7.58601L121.649 7.69444L121.878 7.80287L122.106 7.94744L122.317 8.11009L122.51 8.27272L122.668 8.45344L122.826 8.67028L122.967 8.88714L123.09 9.10399L123.178 9.35699L123.265 9.60998L123.336 9.88104L123.371 10.1702L123.406 10.4413V10.7485V11.0376L123.371 11.3267L123.318 11.6339L123.16 12.3568L122.914 13.3146L122.194 15.9168L121.175 19.3142ZM118.611 12.7905L118.769 12.1761L118.909 11.6701L118.944 11.4532L118.98 11.2906L118.997 11.146V11.0918V11.0376V10.9834L118.98 10.9292V10.893L118.962 10.8569L118.944 10.8388L118.927 10.8027L118.909 10.7665L118.874 10.7485L118.857 10.7123L118.822 10.6943L118.786 10.6762L118.751 10.6581H118.716L118.681 10.64H118.628H118.576H118.488L118.4 10.6581H118.347L118.312 10.6762L118.277 10.6943L118.242 10.7123L118.207 10.7485L118.172 10.7665L118.084 10.8207L118.014 10.875L117.943 10.9473L117.908 10.9834L117.873 11.0557L117.803 11.1822L117.715 11.3629L117.627 11.5797L117.522 11.8327L117.416 12.1038L117.206 12.7905L114.465 22.0429L114.255 22.838L114.097 23.4344L114.026 23.6874L113.991 23.8862L113.956 24.0669V24.1211V24.1753V24.2295V24.2837L113.974 24.3199L113.991 24.356L114.009 24.3922L114.026 24.4283L114.044 24.4464L114.079 24.4825L114.114 24.5006L114.149 24.5367L114.184 24.5548L114.22 24.5729H114.272L114.325 24.5909H114.36H114.413H114.465H114.536L114.588 24.5729H114.641L114.694 24.5548L114.729 24.5367L114.782 24.4825L114.817 24.4645L114.852 24.4283L114.905 24.4102L114.94 24.3741L114.992 24.3379L115.028 24.2837L115.063 24.2295L115.133 24.1211L115.203 23.9946L115.273 23.8139L115.467 23.326L115.66 22.7116L115.923 21.9164L118.611 12.7905ZM133.102 19.3142L132.311 21.8441L131.995 22.8019L131.732 23.5428L131.591 23.85L131.451 24.1392L131.293 24.4464L131.117 24.7174L130.941 25.0066L130.73 25.2776L130.52 25.5487L130.274 25.8017L130.045 26.0547L129.782 26.2896L129.518 26.5245L129.237 26.7233L128.974 26.9221L128.693 27.0848L128.377 27.2474L128.078 27.392L127.762 27.5365L127.446 27.6269L127.095 27.7353L126.761 27.8076L126.427 27.8618L126.076 27.898L125.724 27.9341H125.338H125.004L124.688 27.898L124.39 27.8618L124.073 27.8076L123.792 27.7353L123.529 27.645L123.265 27.5365L123.019 27.41L122.791 27.2835L122.58 27.1209L122.387 26.9583L122.211 26.7775L122.053 26.5607L121.913 26.3438L121.79 26.127L121.702 25.874L121.614 25.621L121.544 25.3499L121.509 25.0608L121.474 24.7897V24.4825L121.491 24.1934L121.526 23.9042L121.579 23.597L121.737 22.8742L121.983 21.9164L122.703 19.3142L123.722 15.9168L124.126 14.5434L124.495 13.3688L124.829 12.4291L125.092 11.6882L125.233 11.381L125.356 11.0918L125.514 10.7846L125.707 10.5135L125.883 10.2244L126.093 9.95334L126.287 9.68226L126.532 9.42928L126.761 9.17628L127.024 8.94136L127.288 8.70642L127.551 8.50765L127.832 8.30887L128.131 8.14622L128.429 7.98358L128.746 7.83901L129.062 7.69444L129.378 7.60409L129.712 7.49566L130.063 7.42338L130.397 7.36917L130.748 7.33303L131.099 7.29688H131.451H131.802L132.136 7.33303L132.434 7.36917L132.733 7.42338L133.031 7.49566L133.295 7.58601L133.576 7.69444L133.804 7.80287L134.033 7.94744L134.243 8.11009L134.437 8.27272L134.595 8.45344L134.753 8.67028L134.893 8.88714L134.999 9.10399L135.104 9.35699L135.192 9.60998L135.262 9.88104L135.297 10.1702L135.332 10.4413V10.7485V11.0376L135.297 11.3267L135.245 11.6339L135.087 12.3568L134.841 13.3146L134.103 15.9168L133.102 19.3142ZM130.537 12.7905L130.695 12.1761L130.836 11.6701L130.871 11.4532L130.906 11.2906L130.924 11.146V11.0918V11.0376V10.9834L130.906 10.9292V10.893L130.889 10.8569L130.871 10.8388L130.853 10.8027L130.836 10.7665L130.801 10.7485L130.783 10.7123L130.748 10.6943L130.713 10.6762L130.678 10.6581H130.625L130.59 10.64H130.537H130.502H130.414L130.326 10.6581H130.274L130.239 10.6762L130.203 10.6943L130.151 10.7123L130.116 10.7485L130.098 10.7665L130.01 10.8207L129.94 10.875L129.87 10.9473L129.835 10.9834L129.799 11.0557L129.712 11.1822L129.641 11.3629L129.554 11.5797L129.448 11.8327L129.343 12.1038L129.132 12.7905L126.392 22.0429L126.164 22.838L126.023 23.4344L125.953 23.6874L125.918 23.8862L125.883 24.0669V24.1211V24.1753V24.2295V24.2837L125.9 24.3199L125.918 24.356L125.935 24.3922L125.953 24.4283L125.97 24.4464L126.006 24.4825L126.041 24.5006L126.076 24.5367L126.111 24.5548L126.146 24.5729H126.181L126.234 24.5909H126.287H126.339H126.392H126.462L126.515 24.5729H126.568L126.603 24.5548L126.638 24.5367L126.691 24.4825L126.743 24.4645L126.778 24.4283L126.831 24.4102L126.866 24.3741L126.919 24.3379L126.954 24.2837L126.989 24.2295L127.042 24.1211L127.112 23.9946L127.2 23.8139L127.393 23.326L127.586 22.7116L127.85 21.9164L130.537 12.7905ZM148.91 7.71252L143.676 16.6577L143.289 27.5365H138.67L139.337 19.0431L136.825 27.5365H132.329L138.195 7.71252H142.692L140.409 15.4108L144.694 7.71252H148.91Z" fill="white"/>
<path fill-rule="evenodd" clip-rule="evenodd" d="M78.0088 34.0067H7.24023V32.832H148.76V34.0067H78.0088Z" fill="#848484"/>
<path fill-rule="evenodd" clip-rule="evenodd" d="M18.1574 46.5778V39.0273H15.8822L14.5936 45.0345L13.2648 39.0273H11.0098V46.5778H12.5198V40.6949L13.8386 46.5778H15.3487L16.6473 40.6949V46.5778H18.1574Z" fill="white"/>
<path fill-rule="evenodd" clip-rule="evenodd" d="M35.4423 46.5778L32.9054 39.0273H31.2343L28.627 46.5778H30.1672L30.6605 45.0552H33.4088L33.892 46.5778H35.4423ZM32.996 43.7606H31.0833L32.0397 40.8088L32.996 43.7606Z" fill="white"/>
<path fill-rule="evenodd" clip-rule="evenodd" d="M50.4827 40.322V39.0273H44.6035V40.322H46.8283V46.5778H48.3384V40.322H50.4827Z" fill="white"/>
<path fill-rule="evenodd" clip-rule="evenodd" d="M66.5295 46.5778V45.2831H62.553V43.3256H66.0664V42.0309H62.553V40.322H66.3483V39.0273H61.043V46.5778H66.5295Z" fill="white"/>
<path fill-rule="evenodd" clip-rule="evenodd" d="M83.4104 46.5778V46.2981C83.1789 46.1635 83.0883 46.0081 83.0883 45.6767C83.048 43.4499 83.0077 43.3463 82.0715 42.932C82.897 42.6006 83.3097 41.9895 83.3097 41.0677C83.3097 39.8974 82.6352 39.0273 81.3366 39.0273H77.4004V46.5778H78.9104V43.5845H80.642C81.2963 43.5845 81.5782 43.8538 81.5782 44.4856L81.5581 45.2831C81.5581 45.9874 81.5983 46.2153 81.7896 46.5778H83.4104ZM81.7997 41.2852C81.7997 41.9584 81.5883 42.2899 80.7326 42.2899H78.9104V40.322H80.7326C81.5581 40.322 81.7997 40.6327 81.7997 41.2852Z" fill="white"/>
<path fill-rule="evenodd" clip-rule="evenodd" d="M95.6429 46.5778V39.0273H94.1328V46.5778H95.6429Z" fill="white"/>
<path fill-rule="evenodd" clip-rule="evenodd" d="M113.007 46.5778L110.47 39.0273H108.799L106.191 46.5778H107.732L108.225 45.0552H110.973L111.456 46.5778H113.007ZM110.56 43.7606H108.648L109.604 40.8088L110.56 43.7606Z" fill="white"/>
<path fill-rule="evenodd" clip-rule="evenodd" d="M128.662 46.5778V45.2831H125.149V39.0273H123.639V46.5778H128.662Z" fill="white"/>
<path fill-rule="evenodd" clip-rule="evenodd" d="M144.99 44.3098C144.99 43.1187 144.406 42.5594 143.047 42.2901L141.899 42.0623C140.822 41.8448 140.51 41.6273 140.51 41.0783C140.51 40.5087 141.003 40.1462 141.778 40.1462C142.735 40.1462 143.319 40.5605 143.319 41.3269H144.728C144.728 39.7319 143.641 38.9033 141.849 38.9033C140.087 38.9033 139.07 39.7526 139.07 41.2233C139.07 42.4041 139.644 42.953 141.134 43.2534L142.161 43.4605C143.168 43.6676 143.54 43.8851 143.54 44.4962C143.54 45.128 142.976 45.4594 142.06 45.4594C141.033 45.4594 140.409 45.0141 140.409 44.2062H138.939C138.939 45.8219 140.107 46.7023 141.98 46.7023C143.872 46.7023 144.99 45.8427 144.99 44.3098Z" fill="white"/>
</svg>
