<svg width="56" height="15" viewBox="0 0 56 15" fill="none" xmlns="http://www.w3.org/2000/svg">
<path d="M3.61686 11.8504C2.88562 11.8504 2.2724 11.6799 1.77719 11.339C1.28198 10.9981 0.909421 10.5345 0.659504 9.94812C0.409587 9.35721 0.284628 8.69585 0.284628 7.96403C0.284628 7.22313 0.409587 6.55949 0.659504 5.97313C0.909421 5.38677 1.27504 4.9254 1.75636 4.58904C2.24231 4.24813 2.84165 4.07768 3.55438 4.07768C4.26248 4.07768 4.8757 4.24813 5.39405 4.58904C5.91702 4.9254 6.32198 5.38677 6.60892 5.97313C6.89587 6.55495 7.03934 7.21858 7.03934 7.96403C7.03934 8.7004 6.89818 9.36176 6.61587 9.94812C6.33355 10.5345 5.93554 10.9981 5.42182 11.339C4.9081 11.6799 4.30645 11.8504 3.61686 11.8504ZM0 14.9186V4.28222H1.47868V9.4504H1.68694V14.9186H0ZM3.36 10.3777C3.79504 10.3777 4.15372 10.2708 4.43603 10.0572C4.71835 9.84358 4.92661 9.55494 5.06083 9.19131C5.19967 8.82312 5.26909 8.41403 5.26909 7.96403C5.26909 7.51858 5.19967 7.11404 5.06083 6.7504C4.92198 6.38222 4.70678 6.09131 4.41521 5.87767C4.12364 5.65949 3.75339 5.5504 3.30446 5.5504C2.87868 5.5504 2.53157 5.65267 2.26314 5.85722C1.99471 6.05722 1.7957 6.33904 1.66612 6.70267C1.54116 7.06176 1.47868 7.48222 1.47868 7.96403C1.47868 8.44131 1.54116 8.86176 1.66612 9.2254C1.7957 9.58903 1.99702 9.87312 2.27008 10.0777C2.54777 10.2777 2.91107 10.3777 3.36 10.3777Z" fill="white"/>
<path d="M7.59764 11.6458V4.28222H9.07632V6.0754L8.89582 5.84358C8.98838 5.59813 9.11103 5.3754 9.26375 5.1754C9.42111 4.97086 9.60855 4.80268 9.82607 4.67086C10.0112 4.54813 10.2148 4.45268 10.437 4.38449C10.6638 4.31177 10.8952 4.26859 11.1312 4.25495C11.3672 4.23677 11.5963 4.24586 11.8185 4.28222V5.81631C11.5963 5.75267 11.3395 5.73222 11.0479 5.75495C10.7609 5.77767 10.5018 5.85722 10.2704 5.99358C10.039 6.11631 9.84921 6.27313 9.70111 6.46404C9.55764 6.65494 9.45119 6.87313 9.38177 7.11858C9.31235 7.35949 9.27764 7.62085 9.27764 7.90267V11.6458H7.59764Z" fill="white"/>
<path d="M12.3102 11.6458V4.28222H13.9832V11.6458H12.3102Z" fill="white"/>
<path d="M24.0948 11.6458V7.17313C24.0948 6.66858 23.9675 6.2754 23.713 5.99358C23.4584 5.70722 23.1136 5.56404 22.6786 5.56404C22.4102 5.56404 22.1695 5.6254 21.9566 5.74813C21.7437 5.86631 21.5748 6.04358 21.4498 6.27995C21.3249 6.51176 21.2624 6.78904 21.2624 7.11176L20.5196 6.68222C20.515 6.17313 20.6307 5.7254 20.8667 5.33904C21.1073 4.94813 21.4313 4.64359 21.8386 4.4254C22.2459 4.20722 22.6994 4.09813 23.1993 4.09813C24.0277 4.09813 24.6617 4.34359 25.1014 4.83449C25.5457 5.32086 25.7678 5.96176 25.7678 6.75722V11.6458H24.0948ZM15.0769 11.6458V4.28222H16.5556V6.56631H16.7639V11.6458H15.0769ZM19.5963 11.6458V7.19358C19.5963 6.67995 19.469 6.27995 19.2145 5.99358C18.9599 5.70722 18.6128 5.56404 18.1731 5.56404C17.7473 5.56404 17.4049 5.70722 17.1457 5.99358C16.8912 6.27995 16.7639 6.65267 16.7639 7.11176L16.0141 6.62085C16.0141 6.14358 16.1345 5.71404 16.3751 5.33222C16.6158 4.9504 16.9397 4.6504 17.347 4.43222C17.7589 4.2095 18.2194 4.09813 18.7285 4.09813C19.2885 4.09813 19.7559 4.21631 20.1308 4.45268C20.5103 4.68449 20.7926 5.00268 20.9778 5.40722C21.1675 5.80722 21.2624 6.25949 21.2624 6.76404V11.6458H19.5963Z" fill="white"/>
<path d="M29.8932 11.8504C29.1342 11.8504 28.4678 11.689 27.8939 11.3663C27.32 11.0436 26.8711 10.5958 26.5471 10.0231C26.2278 9.4504 26.0681 8.79131 26.0681 8.04585C26.0681 7.24131 26.2254 6.54358 26.5402 5.95267C26.8549 5.35722 27.2922 4.89586 27.8522 4.56858C28.4122 4.24131 29.0602 4.07768 29.796 4.07768C30.5735 4.07768 31.233 4.25722 31.7745 4.61631C32.3206 4.97086 32.7256 5.47313 32.9894 6.12313C33.2532 6.77313 33.3527 7.53903 33.2879 8.42085H31.6288V7.82085C31.6241 7.02085 31.4807 6.43676 31.1983 6.06858C30.916 5.7004 30.4717 5.51631 29.8654 5.51631C29.1805 5.51631 28.6714 5.7254 28.3382 6.14358C28.0049 6.55722 27.8383 7.16404 27.8383 7.96403C27.8383 8.70949 28.0049 9.28676 28.3382 9.69585C28.6714 10.1049 29.1573 10.3095 29.796 10.3095C30.2079 10.3095 30.562 10.2208 30.8582 10.0436C31.159 9.86176 31.3904 9.6004 31.5524 9.25949L33.2046 9.75039C32.9177 10.414 32.4734 10.9299 31.8717 11.2981C31.2747 11.6663 30.6152 11.8504 29.8932 11.8504ZM27.3107 8.42085V7.17994H32.4687V8.42085H27.3107Z" fill="white"/>
<path d="M13.2066 3.21448L11.5703 1.60742L13.2066 0.000363883L14.8429 1.60742L13.2066 3.21448Z" fill="white"/>
<rect x="35.1738" y="0.90918" width="20.8264" height="14.0909" fill="white"/>
<mask id="mask0_528_35" style="mask-type:alpha" maskUnits="userSpaceOnUse" x="35" y="0" width="21" height="15">
<rect x="35.1738" y="0.90918" width="20.8264" height="14.0909" fill="#B072FF"/>
</mask>
<g mask="url(#mask0_528_35)">
<g filter="url(#filter0_f_528_35)">
<path fill-rule="evenodd" clip-rule="evenodd" d="M0.94112 5.11563C0.835181 2.38507 1.05519 -0.358092 2.39515 -2.75285C3.86732 -5.38388 5.78738 -8.3128 8.78464 -8.90215C11.7481 -9.48485 14.2077 -6.81576 16.9736 -5.61939C19.3756 -4.58037 21.9173 -4.04913 23.9026 -2.3629C26.3625 -0.273598 28.9604 1.98647 29.6127 5.11563C30.3307 8.56035 29.5256 12.2655 27.565 15.2076C25.549 18.2327 22.458 21.0092 18.7932 21.3509C15.2828 21.6782 12.5953 18.5961 9.52703 16.8894C7.18265 15.5854 4.55806 14.7115 2.98926 12.5602C1.42707 10.418 1.04328 7.74871 0.94112 5.11563Z" fill="white"/>
</g>
<g filter="url(#filter1_f_528_35)">
<path fill-rule="evenodd" clip-rule="evenodd" d="M38.6521 2.99063C38.5461 0.260069 38.7661 -2.48309 40.1061 -4.87785C41.5783 -7.50888 43.4983 -10.4378 46.4956 -11.0272C49.459 -11.6098 51.9186 -8.94076 54.6845 -7.74439C57.0866 -6.70537 59.6282 -6.17413 61.6135 -4.4879C64.0734 -2.3986 66.6714 -0.138531 67.3236 2.99063C68.0416 6.43535 67.2366 10.1405 65.276 13.0826C63.2599 16.1077 60.1689 18.8842 56.5041 19.2259C52.9937 19.5532 50.3063 16.4711 47.238 14.7644C44.8936 13.4604 42.269 12.5865 40.7002 10.4352C39.138 8.29295 38.7542 5.62371 38.6521 2.99063Z" fill="white"/>
</g>
<g filter="url(#filter2_f_528_35)">
<path fill-rule="evenodd" clip-rule="evenodd" d="M1.51724 26.54C0.434033 23.2512 -2.2367 19.879 -0.861187 16.6974C0.509594 13.5266 4.52566 12.1567 7.98388 11.5821C11.1662 11.0534 14.2835 12.3017 17.1803 13.6998C19.7235 14.9272 21.4734 17.0384 23.4403 19.0419C25.7949 21.4402 30.2626 23.2414 29.7864 26.54C29.2888 29.9863 23.8181 30.0238 21.4776 32.6376C19.5027 34.8432 20.0104 38.7197 17.4793 40.2842C14.7908 41.9461 10.9302 42.4398 8.19992 40.8448C5.5024 39.269 5.69744 35.4384 4.38856 32.6366C3.41399 30.5504 2.2365 28.7238 1.51724 26.54Z" fill="white"/>
</g>
<g filter="url(#filter3_f_528_35)">
<path fill-rule="evenodd" clip-rule="evenodd" d="M39.2282 20.5693C38.145 17.2805 35.4742 13.9083 36.8498 10.7267C38.2205 7.55594 42.2366 6.186 45.6948 5.61142C48.8772 5.08267 51.9945 6.33103 54.8912 7.72907C57.4344 8.95649 59.1844 11.0677 61.1513 13.0711C63.5059 15.4695 67.9735 17.2707 67.4973 20.5693C66.9998 24.0156 61.5291 24.0531 59.1886 26.6669C57.2136 28.8725 57.7213 32.749 55.1903 34.3135C52.5017 35.9754 48.6411 36.4691 45.9109 34.8741C43.2133 33.2982 43.4084 29.4677 42.0995 26.6659C41.1249 24.5797 39.9474 22.7531 39.2282 20.5693Z" fill="white"/>
</g>
<g filter="url(#filter4_f_528_35)">
<path fill-rule="evenodd" clip-rule="evenodd" d="M20.523 5.28589C21.1448 3.14528 21.7926 1.17856 22.6064 -0.898996C23.7857 -3.90972 23.6664 -7.7357 26.3514 -9.59368C29.1985 -11.5639 33.1153 -11.3164 36.501 -10.514C40.0793 -9.66596 44.047 -8.23832 45.7001 -5.00815C47.3175 -1.8477 44.6079 1.74874 44.5868 5.28589C44.5659 8.78925 47.5944 12.6028 45.5778 15.4926C43.5684 18.3721 39.0461 17.57 35.5555 18.2278C32.5779 18.7889 29.6916 19.6448 26.7217 19.0462C23.471 18.391 19.4172 17.685 18.0746 14.7045C16.7062 11.667 19.5954 8.48003 20.523 5.28589Z" fill="white"/>
</g>
<g filter="url(#filter5_f_528_35)">
<path fill-rule="evenodd" clip-rule="evenodd" d="M14.3529 26.0641C13.9611 22.8264 16.3515 19.7776 18.8079 17.5844C20.9912 15.6349 24.2761 15.9943 26.9657 14.8024C30.1771 13.3794 32.51 9.65822 36.0199 9.95762C39.6164 10.2644 42.4565 13.295 44.3906 16.2888C46.2503 19.1675 46.2351 22.66 46.4252 26.0641C46.6276 29.6886 47.8946 33.8629 45.5277 36.6508C43.1658 39.4329 38.7435 38.818 35.1033 39.4001C32.0864 39.8824 28.9641 40.9522 26.1648 39.7466C23.466 38.5842 22.6033 35.4031 20.6975 33.1954C18.5667 30.7273 14.7419 29.2774 14.3529 26.0641Z" fill="white"/>
</g>
<path d="M37.9492 11.5124V4.09082H39.2139V10.3476H42.5513V11.5124H37.9492Z" fill="#13191F"/>
<path d="M44.5003 11.667C44.091 11.667 43.7447 11.5914 43.4613 11.4402C43.1779 11.2856 42.9628 11.0812 42.8158 10.8269C42.6724 10.5726 42.6007 10.2926 42.6007 9.98683C42.6007 9.71883 42.6462 9.47831 42.7371 9.26529C42.8281 9.04883 42.968 8.86329 43.1569 8.70867C43.3459 8.55062 43.5907 8.42177 43.8916 8.32213C44.119 8.24998 44.3849 8.1847 44.6892 8.12629C44.9971 8.06788 45.3294 8.01462 45.6863 7.96652C46.0466 7.91498 46.4227 7.86 46.8145 7.80159L46.3632 8.05413C46.3667 7.66931 46.2792 7.38585 46.1008 7.20375C45.9224 7.02164 45.6215 6.93059 45.1982 6.93059C44.9429 6.93059 44.6962 6.989 44.4583 7.10582C44.2204 7.22264 44.0543 7.42364 43.9598 7.70882L42.8054 7.35321C42.9453 6.88249 43.2112 6.50454 43.603 6.21936C43.9983 5.93418 44.5301 5.79159 45.1982 5.79159C45.702 5.79159 46.1446 5.87233 46.5259 6.03382C46.9107 6.19531 47.1958 6.45987 47.3812 6.82752C47.4827 7.02336 47.5439 7.22436 47.5649 7.43052C47.5859 7.63323 47.5964 7.85485 47.5964 8.09536V11.5124H46.4891V10.3064L46.6728 10.5022C46.4174 10.9042 46.1183 11.1997 45.7755 11.3887C45.4361 11.5742 45.0111 11.667 44.5003 11.667ZM44.7522 10.6774C45.0391 10.6774 45.284 10.6276 45.4869 10.528C45.6898 10.4283 45.8507 10.3064 45.9696 10.1621C46.0921 10.0177 46.1743 9.88203 46.2163 9.7549C46.2827 9.59685 46.3195 9.41647 46.3265 9.21375C46.337 9.00759 46.3422 8.84095 46.3422 8.71382L46.7305 8.82721C46.3492 8.88562 46.0221 8.93716 45.7492 8.98183C45.4764 9.02649 45.242 9.06944 45.0461 9.11067C44.8502 9.14847 44.677 9.19142 44.5266 9.23952C44.3796 9.29106 44.2554 9.35118 44.154 9.4199C44.0525 9.48862 43.9738 9.56765 43.9178 9.65698C43.8654 9.74631 43.8391 9.85111 43.8391 9.97136C43.8391 10.1088 43.8741 10.2308 43.9441 10.3373C44.014 10.4404 44.1155 10.5228 44.2484 10.5847C44.3849 10.6465 44.5528 10.6774 44.7522 10.6774Z" fill="#13191F"/>
<path d="M51.1613 11.667C50.6085 11.667 50.145 11.5381 49.7707 11.2804C49.3964 11.0228 49.1147 10.6723 48.9258 10.2291C48.7369 9.78239 48.6425 9.28247 48.6425 8.72929C48.6425 8.16923 48.7369 7.66759 48.9258 7.22436C49.1147 6.78113 49.3911 6.43239 49.7549 6.17813C50.1223 5.92044 50.5753 5.79159 51.1141 5.79159C51.6493 5.79159 52.1128 5.92044 52.5047 6.17813C52.9 6.43239 53.2061 6.78113 53.423 7.22436C53.6399 7.66416 53.7483 8.1658 53.7483 8.72929C53.7483 9.2859 53.6416 9.78583 53.4282 10.2291C53.2148 10.6723 52.914 11.0228 52.5256 11.2804C52.1373 11.5381 51.6825 11.667 51.1613 11.667ZM48.4273 11.5124V4.09082H49.7025V7.60575H49.545V11.5124H48.4273ZM50.9671 10.5537C51.296 10.5537 51.5671 10.473 51.7805 10.3115C51.9939 10.15 52.1513 9.93185 52.2528 9.65698C52.3577 9.37867 52.4102 9.06944 52.4102 8.72929C52.4102 8.39257 52.3577 8.08677 52.2528 7.8119C52.1478 7.53359 51.9852 7.3137 51.7648 7.15221C51.5444 6.98728 51.2645 6.90482 50.9251 6.90482C50.6033 6.90482 50.3409 6.98213 50.138 7.13675C49.9351 7.28793 49.7847 7.50095 49.6867 7.77582C49.5923 8.04726 49.545 8.36508 49.545 8.72929C49.545 9.09006 49.5923 9.40788 49.6867 9.68275C49.7847 9.95762 49.9369 10.1724 50.1433 10.327C50.3532 10.4782 50.6278 10.5537 50.9671 10.5537Z" fill="#13191F"/>
</g>
<defs>
<filter id="filter0_f_528_35" x="-9.51536" y="-19.4177" width="49.8198" height="51.226" filterUnits="userSpaceOnUse" color-interpolation-filters="sRGB">
<feFlood flood-opacity="0" result="BackgroundImageFix"/>
<feBlend mode="normal" in="SourceGraphic" in2="BackgroundImageFix" result="shape"/>
<feGaussianBlur stdDeviation="5.21667" result="effect1_foregroundBlur_528_35"/>
</filter>
<filter id="filter1_f_528_35" x="28.1956" y="-21.5427" width="49.8198" height="51.226" filterUnits="userSpaceOnUse" color-interpolation-filters="sRGB">
<feFlood flood-opacity="0" result="BackgroundImageFix"/>
<feBlend mode="normal" in="SourceGraphic" in2="BackgroundImageFix" result="shape"/>
<feGaussianBlur stdDeviation="5.21667" result="effect1_foregroundBlur_528_35"/>
</filter>
<filter id="filter2_f_528_35" x="-11.6794" y="1.02467" width="51.935" height="51.226" filterUnits="userSpaceOnUse" color-interpolation-filters="sRGB">
<feFlood flood-opacity="0" result="BackgroundImageFix"/>
<feBlend mode="normal" in="SourceGraphic" in2="BackgroundImageFix" result="shape"/>
<feGaussianBlur stdDeviation="5.21667" result="effect1_foregroundBlur_528_35"/>
</filter>
<filter id="filter3_f_528_35" x="26.0315" y="-4.94603" width="51.935" height="51.226" filterUnits="userSpaceOnUse" color-interpolation-filters="sRGB">
<feFlood flood-opacity="0" result="BackgroundImageFix"/>
<feBlend mode="normal" in="SourceGraphic" in2="BackgroundImageFix" result="shape"/>
<feGaussianBlur stdDeviation="5.21667" result="effect1_foregroundBlur_528_35"/>
</filter>
<filter id="filter4_f_528_35" x="7.27956" y="-21.5427" width="49.4253" height="51.226" filterUnits="userSpaceOnUse" color-interpolation-filters="sRGB">
<feFlood flood-opacity="0" result="BackgroundImageFix"/>
<feBlend mode="normal" in="SourceGraphic" in2="BackgroundImageFix" result="shape"/>
<feGaussianBlur stdDeviation="5.21667" result="effect1_foregroundBlur_528_35"/>
</filter>
<filter id="filter5_f_528_35" x="3.87721" y="-0.492904" width="53.5014" height="51.226" filterUnits="userSpaceOnUse" color-interpolation-filters="sRGB">
<feFlood flood-opacity="0" result="BackgroundImageFix"/>
<feBlend mode="normal" in="SourceGraphic" in2="BackgroundImageFix" result="shape"/>
<feGaussianBlur stdDeviation="5.21667" result="effect1_foregroundBlur_528_35"/>
</filter>
</defs>
</svg>
