<svg width="153" height="34" viewBox="0 0 153 34" fill="none" xmlns="http://www.w3.org/2000/svg">
<path d="M18.0491 9.23419C18.703 9.75898 19.2191 10.4042 19.5977 11.1699C19.9762 11.9355 20.1655 12.7657 20.1655 13.6604C20.1655 14.7014 19.9074 15.6564 19.3912 16.5253C18.8836 17.3856 18.1997 18.0738 17.3394 18.59C16.4791 19.0976 15.5241 19.3514 14.4746 19.3514H0.0214844V15.6607H14.4746C15.0252 15.6607 15.494 15.4671 15.8812 15.08C16.2769 14.6842 16.4748 14.211 16.4748 13.6604C16.4748 13.1099 16.2769 12.641 15.8812 12.2539C15.494 11.8581 15.0252 11.6602 14.4746 11.6602H0.0214844V7.96954H13.5454C14.0186 7.96954 14.4187 7.80609 14.7456 7.47917C15.0811 7.14365 15.2488 6.74361 15.2488 6.27905C15.2488 5.80588 15.0811 5.40584 14.7456 5.07893C14.4187 4.74341 14.0186 4.57565 13.5454 4.57565H0.0214844V0.884949H13.5454C14.5434 0.884949 15.4467 1.13014 16.2554 1.62051C17.0727 2.10228 17.7222 2.75181 18.204 3.56909C18.6944 4.38638 18.9396 5.2897 18.9396 6.27905C18.9396 7.36303 18.6427 8.34808 18.0491 9.23419Z" fill="white"/>
<path d="M22.7593 0.884949H26.45V15.6607H42.4516V19.3514H22.7593V0.884949Z" fill="white"/>
<path d="M52.4139 19.3514C50.4439 19.3514 48.706 18.6287 47.2005 17.1834C45.7552 15.6779 45.0325 13.94 45.0325 11.97V0.884949H48.7232V11.97C48.7232 12.9851 49.0846 13.854 49.8072 14.5767C50.5299 15.2993 51.3988 15.6607 52.4139 15.6607H59.1888C60.204 15.6607 61.0729 15.2993 61.7956 14.5767C62.5182 13.854 62.8795 12.9851 62.8795 11.97V0.884949H66.5702V11.97C66.5702 13.94 65.8519 15.6779 64.4152 17.1834C62.901 18.6287 61.1589 19.3514 59.1888 19.3514H52.4139Z" fill="white"/>
<path d="M69.164 19.3514V0.884949H89.4758V4.57565H72.8547V8.27925H85.7851V11.97H72.8547V15.6607H89.4758V19.3514H69.164Z" fill="white"/>
<path d="M102.316 10.5634C101.722 10.0558 101.258 9.44066 100.922 8.71801C100.587 7.98675 100.419 7.22108 100.419 6.421C100.419 5.40584 100.668 4.48102 101.167 3.64652C101.666 2.80342 102.333 2.13239 103.168 1.63341C104.011 1.13444 104.94 0.884949 105.955 0.884949H121.337V4.57565H105.955C105.447 4.57565 105.013 4.75631 104.652 5.11764C104.29 5.47897 104.11 5.91342 104.11 6.421C104.11 6.92858 104.307 7.37163 104.703 7.75017C105.013 7.99966 105.409 8.15451 105.89 8.21473C106.372 8.26635 106.91 8.29216 107.503 8.29216C107.607 8.29216 107.71 8.29216 107.813 8.29216H107.826C109.271 8.31797 110.717 8.32227 112.162 8.30506H112.588C113.293 8.29646 113.994 8.28356 114.691 8.26635C114.932 8.26635 115.177 8.26205 115.427 8.25345C116.003 8.23624 116.61 8.26205 117.246 8.33087C117.892 8.3997 118.533 8.58466 119.169 8.88577C120.761 9.70306 121.741 10.9978 122.111 12.77C122.266 13.6045 122.24 14.4261 122.034 15.2348C121.81 16.0951 121.402 16.8565 120.808 17.5189C120.275 18.1039 119.655 18.5556 118.95 18.8739C118.244 19.1922 117.504 19.3514 116.73 19.3514H101.038V15.6607H116.73C117.229 15.6607 117.672 15.4585 118.059 15.0541C118.455 14.6068 118.597 14.0777 118.485 13.4669C118.365 12.8819 118.051 12.4603 117.543 12.2022C116.993 11.9786 116.309 11.8925 115.491 11.9441C115.25 11.9527 115.01 11.957 114.769 11.957C114.063 11.9743 113.345 11.9872 112.614 11.9958H112.188C110.717 12.0216 109.237 12.0173 107.749 11.9829C107.654 11.9829 107.559 11.9829 107.465 11.9829C106.665 12.0001 105.813 11.9355 104.91 11.7893C104.015 11.6344 103.15 11.2258 102.316 10.5634Z" fill="white"/>
<path d="M124.938 0.884949H128.628V19.3514H124.938V0.884949Z" fill="white"/>
<path d="M147.533 0.884949H152.463L144.294 10.1246L152.463 19.3514H147.533L141.83 12.912L136.139 19.3514H131.209L139.365 10.1246L131.209 0.884949H136.139L141.83 7.33722L147.533 0.884949Z" fill="white"/>
<rect x="0.0214844" y="0.851501" width="3.69999" height="18.2357" fill="white"/>
<path d="M50.0944 27.8153C50.6194 28.3621 50.8819 28.9949 50.8819 29.7136V31.0541C50.8819 31.7697 50.6194 32.4009 50.0944 32.9477C49.5476 33.4727 48.9148 33.7351 48.1961 33.7351H43.5137V32.3946H48.1961C48.568 32.3946 48.8851 32.2634 49.1476 32.0009C49.4101 31.7384 49.5413 31.4228 49.5413 31.0541V29.7136C49.5413 29.3417 49.4101 29.0246 49.1476 28.7621C48.8851 28.4996 48.568 28.3684 48.1961 28.3684H43.5137V27.0278H48.1961C48.9148 27.0278 49.5476 27.2903 50.0944 27.8153Z" fill="white"/>
<path d="M53.7872 33.7351V27.0278H61.1647V28.3684H55.1277V29.7136H59.8242V31.0541H55.1277V32.3946H61.1647V33.7351H53.7872Z" fill="white"/>
<path d="M64.759 30.5432C64.5434 30.3588 64.3747 30.1354 64.2528 29.8729C64.1309 29.6073 64.07 29.3292 64.07 29.0386C64.07 28.6699 64.1606 28.334 64.3419 28.0309C64.5231 27.7247 64.7653 27.4809 65.0684 27.2997C65.3746 27.1185 65.7121 27.0278 66.0808 27.0278H71.6679V28.3684H66.0808C65.8964 28.3684 65.7386 28.434 65.6074 28.5652C65.4762 28.6965 65.4105 28.8543 65.4105 29.0386C65.4105 29.223 65.4824 29.3839 65.6262 29.5214C65.7386 29.612 65.8824 29.6683 66.0574 29.6901C66.2324 29.7089 66.4277 29.7183 66.6433 29.7183C66.6808 29.7183 66.7183 29.7183 66.7558 29.7183H66.7604C67.2854 29.7276 67.8104 29.7292 68.3353 29.7229H68.49C68.7462 29.7198 69.0009 29.7151 69.254 29.7089C69.3415 29.7089 69.4306 29.7073 69.5212 29.7042C69.7305 29.6979 69.9508 29.7073 70.1821 29.7323C70.4164 29.7573 70.6492 29.8245 70.8804 29.9339C71.4585 30.2307 71.8148 30.701 71.9491 31.3447C72.0054 31.6478 71.996 31.9462 71.921 32.2399C71.8397 32.5524 71.6913 32.829 71.4757 33.0696C71.282 33.2821 71.057 33.4461 70.8008 33.5617C70.5445 33.6773 70.2758 33.7351 69.9946 33.7351H64.295V32.3946H69.9946C70.1758 32.3946 70.3367 32.3212 70.4774 32.1743C70.6211 32.0118 70.6726 31.8197 70.632 31.5978C70.5883 31.3853 70.4742 31.2322 70.2899 31.1385C70.0899 31.0572 69.8415 31.026 69.5446 31.0447C69.4571 31.0478 69.3696 31.0494 69.2821 31.0494C69.0259 31.0557 68.765 31.0603 68.4994 31.0635H68.3447C67.8104 31.0728 67.2729 31.0713 66.7323 31.0588C66.6979 31.0588 66.6636 31.0588 66.6292 31.0588C66.3386 31.065 66.0292 31.0416 65.7011 30.9885C65.3762 30.9322 65.0621 30.7838 64.759 30.5432Z" fill="white"/>
<path d="M74.9435 27.0278H76.284V33.7351H74.9435V27.0278Z" fill="white"/>
<path d="M81.8703 33.7351C81.1547 33.7351 80.5235 33.4727 79.9767 32.9477C79.4517 32.4009 79.1893 31.7697 79.1893 31.0541V29.7136C79.1893 28.9949 79.4517 28.3621 79.9767 27.8153C80.5235 27.2903 81.1547 27.0278 81.8703 27.0278H84.3311C85.0466 27.0278 85.6794 27.2903 86.2294 27.8153C86.6325 28.2246 86.8809 28.7074 86.9746 29.2636H85.5966C85.4997 28.998 85.3372 28.7824 85.1091 28.6168C84.881 28.4512 84.6217 28.3684 84.3311 28.3684H81.8703C81.5016 28.3684 81.186 28.4996 80.9235 28.7621C80.661 29.0246 80.5298 29.3417 80.5298 29.7136V31.0541C80.5298 31.4228 80.661 31.7384 80.9235 32.0009C81.186 32.2634 81.5016 32.3946 81.8703 32.3946H84.3311C84.6217 32.3946 84.881 32.3118 85.1091 32.1462C85.3372 31.9806 85.4997 31.765 85.5966 31.4994H83.4358V30.1588H87.0121V31.0541C87.0121 31.7697 86.7512 32.4009 86.2294 32.9477C85.6794 33.4727 85.0466 33.7351 84.3311 33.7351H81.8703Z" fill="white"/>
<path d="M91.2626 28.6308V33.7351H89.9221V27.0278H91.5485L96.7419 32.1368V27.0278H98.0824V33.7351H96.456L91.2626 28.6308Z" fill="white"/>
<path d="M101.681 30.5432C101.466 30.3588 101.297 30.1354 101.175 29.8729C101.053 29.6073 100.992 29.3292 100.992 29.0386C100.992 28.6699 101.083 28.334 101.264 28.0309C101.445 27.7247 101.688 27.4809 101.991 27.2997C102.297 27.1185 102.634 27.0278 103.003 27.0278H108.59V28.3684H103.003C102.819 28.3684 102.661 28.434 102.53 28.5652C102.399 28.6965 102.333 28.8543 102.333 29.0386C102.333 29.223 102.405 29.3839 102.549 29.5214C102.661 29.612 102.805 29.6683 102.98 29.6901C103.155 29.7089 103.35 29.7183 103.566 29.7183C103.603 29.7183 103.641 29.7183 103.678 29.7183H103.683C104.208 29.7276 104.733 29.7292 105.258 29.7229H105.412C105.669 29.7198 105.923 29.7151 106.176 29.7089C106.264 29.7089 106.353 29.7073 106.444 29.7042C106.653 29.6979 106.873 29.7073 107.104 29.7323C107.339 29.7573 107.572 29.8245 107.803 29.9339C108.381 30.2307 108.737 30.701 108.871 31.3447C108.928 31.6478 108.918 31.9462 108.843 32.2399C108.762 32.5524 108.614 32.829 108.398 33.0696C108.204 33.2821 107.979 33.4461 107.723 33.5617C107.467 33.6773 107.198 33.7351 106.917 33.7351H101.217V32.3946H106.917C107.098 32.3946 107.259 32.3212 107.4 32.1743C107.543 32.0118 107.595 31.8197 107.554 31.5978C107.511 31.3853 107.397 31.2322 107.212 31.1385C107.012 31.0572 106.764 31.026 106.467 31.0447C106.379 31.0478 106.292 31.0494 106.204 31.0494C105.948 31.0557 105.687 31.0603 105.422 31.0635H105.267C104.733 31.0728 104.195 31.0713 103.655 31.0588C103.62 31.0588 103.586 31.0588 103.552 31.0588C103.261 31.065 102.952 31.0416 102.624 30.9885C102.299 30.9322 101.985 30.7838 101.681 30.5432Z" fill="white"/>
<rect x="43.3633" y="27.0157" width="1.2799" height="6.7195" fill="white"/>
</svg>
