<svg width="85" height="56" viewBox="0 0 85 56" fill="none" xmlns="http://www.w3.org/2000/svg">
<g style="mix-blend-mode:luminosity">
<path d="M26.2291 55.6276C26.2291 55.6276 33.1845 51.4324 39.394 41.8733C45.6036 32.3143 34.84 24.5748 31.0292 22.3298C26.9877 19.9515 3.35144 8.03731 0.998834 0.958984C0.998834 0.958984 -1.44859 11.3151 11.7803 17.7092C25.0093 24.1032 38.7123 30.1898 35.7395 39.5874C32.7667 48.985 26.2291 55.6276 26.2291 55.6276Z" fill="url(#paint0_linear_694_2)"/>
<path d="M32.6203 34.0621C32.6203 34.0621 29.9858 28.5803 16.5519 23.4215C3.11793 18.2627 1.22405 12.4324 1.22405 12.4324C1.22405 12.4324 -0.459673 20.828 11.3008 25.4845C23.0613 30.1411 25.4088 28.5803 32.6203 34.0621Z" fill="url(#paint1_linear_694_2)"/>
<path d="M31.6597 35.2896C31.6597 35.2896 26.5957 31.9119 15.8475 30.2666C5.09934 28.6213 4.59961 25.9843 4.59961 25.9843C4.59961 25.9843 8.32329 32.6474 16.5113 33.8493C24.6993 35.0513 23.5358 33.6136 31.6597 35.2896Z" fill="white"/>
<path d="M59.515 55.6278C59.515 55.6278 52.5597 51.4325 46.3502 41.8735C40.1406 32.3144 50.9042 24.5749 54.715 22.3299C58.7564 19.9517 82.3927 8.03743 84.7453 0.959106C84.7453 0.959106 87.1927 11.3152 73.9638 17.7093C60.7349 24.1033 47.0318 30.1899 50.0046 39.5875C52.9774 48.9851 59.515 55.6278 59.515 55.6278Z" fill="url(#paint2_linear_694_2)"/>
<path d="M53.1211 34.0621C53.1211 34.0621 55.7556 28.5803 69.1896 23.4215C82.6235 18.2627 84.5174 12.4324 84.5174 12.4324C84.5174 12.4324 86.2011 20.828 74.4406 25.4845C62.6802 30.1411 60.3327 28.5803 53.1211 34.0621Z" fill="url(#paint3_linear_694_2)"/>
<path d="M54.084 35.2896C54.084 35.2896 59.148 31.9119 69.8962 30.2666C80.6444 28.6213 81.1441 25.9843 81.1441 25.9843C81.1441 25.9843 77.4204 32.6474 69.2324 33.8493C61.0444 35.0513 62.2079 33.6136 54.084 35.2896Z" fill="white"/>
</g>
<defs>
<linearGradient id="paint0_linear_694_2" x1="21.0524" y1="1.54842" x2="21.0524" y2="55.5097" gradientUnits="userSpaceOnUse">
<stop stop-color="white"/>
<stop offset="1" stop-color="white"/>
</linearGradient>
<linearGradient id="paint1_linear_694_2" x1="16.885" y1="1.54842" x2="16.885" y2="55.5098" gradientUnits="userSpaceOnUse">
<stop stop-color="white"/>
<stop offset="1" stop-color="white"/>
</linearGradient>
<linearGradient id="paint2_linear_694_2" x1="64.6918" y1="1.54854" x2="64.6918" y2="55.5099" gradientUnits="userSpaceOnUse">
<stop stop-color="white"/>
<stop offset="1" stop-color="white"/>
</linearGradient>
<linearGradient id="paint3_linear_694_2" x1="68.8564" y1="1.54842" x2="68.8564" y2="55.5098" gradientUnits="userSpaceOnUse">
<stop stop-color="white"/>
<stop offset="1" stop-color="white"/>
</linearGradient>
</defs>
</svg>
