<svg xmlns="http://www.w3.org/2000/svg" xmlns:xlink="http://www.w3.org/1999/xlink" viewBox="0 0 435.81 182.84"><defs><style>.cls-1{fill:url(#linear-gradient);}.cls-2{fill:url(#linear-gradient-2);}.cls-3{fill:url(#linear-gradient-3);}.cls-4{fill:url(#linear-gradient-4);}.cls-5{fill:url(#linear-gradient-5);}.cls-6{fill:#000;}</style><linearGradient id="linear-gradient" x1="43.81" y1="10.04" x2="43.81" y2="162.35" gradientUnits="userSpaceOnUse"><stop offset="0" stop-color="aqua"/><stop offset="1" stop-color="#000061"/></linearGradient><linearGradient id="linear-gradient-2" x1="148.12" y1="10.04" x2="148.12" y2="162.35" xlink:href="#linear-gradient"/><linearGradient id="linear-gradient-3" x1="226.62" y1="10.04" x2="226.62" y2="162.35" xlink:href="#linear-gradient"/><linearGradient id="linear-gradient-4" x1="299.69" y1="10.04" x2="299.69" y2="162.35" xlink:href="#linear-gradient"/><linearGradient id="linear-gradient-5" x1="389.04" y1="10.04" x2="389.04" y2="162.35" xlink:href="#linear-gradient"/></defs><g id="Layer_2" data-name="Layer 2"><g id="Layer_1-2" data-name="Layer 1"><path class="cls-1" d="M57.38,20.55c21.7,0,30.24,12.17,30.24,28.61V89.93c0,12.49-3.28,17.42-17.92,17.42H29.1C8.55,107.35,0,97.32,0,80.88c0-15.78,7.89-25,29.26-25H70.53V49.32c0-6.74-3.78-12-13.32-12H5.26V20.55ZM70.53,86V69.71H29.59c-9.2,0-12.49,3.78-12.49,10.19s3.45,10.52,12.16,10.52h36.5C69.21,90.42,70.53,89.1,70.53,86Z"/><path class="cls-2" d="M184.62,20.55V37.32h-48c-8.05,0-11.34,3.29-11.34,9.86,0,6.09,2.63,9.37,12.33,9.37H158c24,0,30.09,11,30.09,24.5,0,15.45-8.06,26.3-28.44,26.3H109.16V90.42h50.47c8.05,0,11.34-2.8,11.34-9.54,0-6.9-3.61-9.7-12.33-9.7H138.09c-24,0-29.92-12-29.92-25.31,0-15.62,8.06-25.32,28.28-25.32Z"/><path class="cls-3" d="M211.74,20.55V0h17.59V20.55h24V37.32h-24v41.1c0,9.7,3.45,13,11.68,13h12v15.94H237.39c-17.92,0-25.65-7.23-25.65-29.92V37.32H199.91V20.55Z"/><path class="cls-4" d="M329.29,20.55V37.32H298.71c-7.73,0-11.18,3.62-11.18,11.18v58.85H270.1V45.87c0-17.43,6.41-25.32,23.51-25.32Z"/><path class="cls-5" d="M398.17,20.55c23,0,37.64,14.14,37.64,43.4s-14.63,43.4-37.64,43.4H379.92c-23.18,0-37.65-14.14-37.65-43.4s14.47-43.4,37.65-43.4ZM381.56,37.32c-15.12,0-21.7,7.89-21.7,26.63s6.58,26.47,21.7,26.47h15c15,0,21.7-7.73,21.7-26.47s-6.74-26.63-21.7-26.63Z"/><path class="cls-6" d="M111.64,182.25H97.11V142.49h15q8.67,0,13.56,5.38t5,14.58q0,9.09-5.12,14.47T111.64,182.25Zm-8.34-33.84v27.92h8.61a11.06,11.06,0,0,0,9-3.93,15.26,15.26,0,0,0,3.28-10.11,15.05,15.05,0,0,0-3.28-10,11,11,0,0,0-9-3.92Z"/><path class="cls-6" d="M143.49,182.25V142.49h6.19v39.76Z"/><path class="cls-6" d="M182.77,182.84a20.16,20.16,0,0,1-14.69-5.75,19.93,19.93,0,0,1-5.81-14.69,19.61,19.61,0,0,1,6-14.75A20.33,20.33,0,0,1,183,141.79a22.84,22.84,0,0,1,9.28,1.91,19.19,19.19,0,0,1,7.13,5.13L195.2,153a15.6,15.6,0,0,0-12.1-5.22,14.77,14.77,0,0,0-10.39,25,13.88,13.88,0,0,0,10.23,4.09,16.84,16.84,0,0,0,6.61-1.37,15.91,15.91,0,0,0,5.49-3.79V164.6H182.5V159h18.3v15.6A23.39,23.39,0,0,1,182.77,182.84Z"/><path class="cls-6" d="M213.77,182.25V142.49H220v39.76Z"/><path class="cls-6" d="M242.56,182.25V148.51H230.93v-6h29.55v6H248.85v33.74Z"/><path class="cls-6" d="M299,182.25h-6.67l-3.77-9.79H273.88l-3.77,9.79h-6.67l15.82-39.76h4Zm-12.32-15.5-5.38-14.42-5.38,14.42Z"/><path class="cls-6" d="M336.94,182.25H309.77V142.49H316v33.79h21Z"/></g></g></svg>