<svg width="21" height="21" viewBox="0 0 21 21" fill="none" xmlns="http://www.w3.org/2000/svg">
<path d="M19.2837 15.042L13.3137 2.23898C12.9744 1.51135 12.3599 0.948314 11.6055 0.673741C10.851 0.399169 10.0184 0.43555 9.29074 0.774881C8.56311 1.11421 8.00007 1.7287 7.7255 2.48315C7.45093 3.23761 7.48731 4.07024 7.82664 4.79788L13.7971 17.6004C14.1363 18.3281 14.7507 18.8911 15.5052 19.1657C16.2596 19.4404 17.0922 19.4041 17.8198 19.0648C18.5474 18.7255 19.1105 18.1111 19.3851 17.3567C19.6597 16.6023 19.6229 15.7697 19.2837 15.042Z" stroke="white"/>
<path d="M10.2427 11.1987L7.25695 17.6C7.08894 17.9603 6.85161 18.284 6.55851 18.5526C6.2654 18.8211 5.92227 19.0293 5.54869 19.1653C5.17512 19.3013 4.77842 19.3623 4.38126 19.3449C3.98409 19.3276 3.59423 19.2321 3.23395 19.0641C2.50642 18.7248 1.94346 18.1104 1.66889 17.3561C1.39433 16.6017 1.43064 15.7692 1.76985 15.0416L7.6878 2.35156" stroke="white" stroke-linecap="round"/>
<path d="M3.23565 19.0641C4.75083 19.7706 6.55188 19.1151 7.25842 17.5999C7.96496 16.0847 7.30943 14.2837 5.79425 13.5772C4.27908 12.8706 2.47802 13.5261 1.77148 15.0413C1.06494 16.5565 1.72047 18.3576 3.23565 19.0641Z" stroke="white"/>
</svg>
